M48
; DRILL file {KiCad 7.0.2} date Fri Jun  2 20:19:57 2023
; FORMAT={-:-/ absolute / metric / decimal}
; #@! TF.CreationDate,2023-06-02T20:19:57-04:00
; #@! TF.GenerationSoftware,Kicad,Pcbnew,7.0.2
; #@! TF.FileFunction,Plated,1,2,PTH
FMAT,2
METRIC
; #@! TA.AperFunction,Plated,PTH,ViaDrill
T1C0.300
; #@! TA.AperFunction,Plated,PTH,ComponentDrill
T2C0.450
; #@! TA.AperFunction,Plated,PTH,ViaDrill
T3C0.500
; #@! TA.AperFunction,Plated,PTH,ComponentDrill
T4C1.000
%
G90
G05
T1
X112.59Y-49.39
X112.88Y-52.82
X114.17Y-49.95
X115.0Y-55.0
X116.0Y-65.0
X118.08Y-59.37
X118.13Y-60.45
X119.0Y-48.0
X119.0Y-51.0
X119.0Y-52.0
X119.0Y-53.0
X119.0Y-62.0
X119.47Y-57.6
X120.0Y-48.0
X120.0Y-51.0
X120.0Y-52.0
X120.0Y-53.0
X120.0Y-62.0
X121.0Y-48.0
X121.0Y-51.0
X121.0Y-52.0
X121.0Y-53.0
X121.0Y-54.0
X121.0Y-55.0
X121.0Y-62.0
X122.0Y-48.0
X122.0Y-51.0
X122.0Y-52.0
X122.0Y-53.0
X122.0Y-54.0
X122.0Y-55.0
X122.0Y-62.0
X123.0Y-48.0
X123.0Y-51.0
X123.0Y-52.0
X123.0Y-53.0
X123.0Y-54.0
X123.0Y-55.0
X124.0Y-48.0
X124.0Y-51.0
X124.0Y-52.0
X124.0Y-53.0
X124.0Y-54.0
X124.0Y-55.0
X124.86Y-58.56
X125.0Y-48.0
X125.0Y-52.0
X125.0Y-53.0
X125.0Y-54.0
X125.0Y-55.0
X125.07Y-57.26
X125.92Y-59.69
X126.0Y-48.0
X126.69Y-60.09
X127.0Y-48.0
X127.0Y-49.0
X128.0Y-48.0
X128.0Y-49.0
X128.0Y-50.0
X128.0Y-51.0
X128.0Y-52.0
X128.0Y-53.0
X128.0Y-54.0
X129.0Y-48.0
X129.0Y-49.0
X129.0Y-50.0
X129.0Y-51.0
X129.0Y-52.0
X129.0Y-53.0
X129.0Y-54.0
X130.0Y-48.0
X130.0Y-49.0
X130.0Y-50.0
X130.0Y-51.0
X130.0Y-52.0
X130.46Y-58.31
X131.0Y-48.0
X131.0Y-49.0
X131.0Y-50.0
X131.0Y-51.0
X131.11Y-52.36
X132.0Y-48.0
X132.0Y-65.0
X133.0Y-48.0
X133.0Y-65.0
X134.0Y-65.0
X135.0Y-65.0
X139.93Y-58.98
T3
X130.24Y-61.02
X132.65Y-54.8
T4
X120.31Y-64.11
X122.85Y-64.11
X125.39Y-64.11
X142.79Y-49.595
X142.79Y-52.135
X142.79Y-54.675
X145.33Y-49.595
X145.33Y-52.135
X145.33Y-54.675
T2
X113.48Y-56.87G85X114.28Y-56.87
G05
X114.28Y-64.02G85X113.48Y-64.02
G05
T0
M30
