%TF.GenerationSoftware,KiCad,Pcbnew,7.0.2*%
%TF.CreationDate,2023-06-02T20:19:36-04:00*%
%TF.ProjectId,Zaelio_USB_YHP,5a61656c-696f-45f5-9553-425f5948502e,rev?*%
%TF.SameCoordinates,Original*%
%TF.FileFunction,Legend,Top*%
%TF.FilePolarity,Positive*%
%FSLAX46Y46*%
G04 Gerber Fmt 4.6, Leading zero omitted, Abs format (unit mm)*
G04 Created by KiCad (PCBNEW 7.0.2) date 2023-06-02 20:19:36*
%MOMM*%
%LPD*%
G01*
G04 APERTURE LIST*
%ADD10C,0.150000*%
%ADD11C,0.125000*%
%ADD12C,0.200000*%
%ADD13C,0.100000*%
%ADD14C,0.120000*%
G04 APERTURE END LIST*
D10*
X118695238Y-53377619D02*
X119266666Y-53377619D01*
X118980952Y-54377619D02*
X118980952Y-53377619D01*
X119504762Y-53377619D02*
X120171428Y-54377619D01*
X120171428Y-53377619D02*
X119504762Y-54377619D01*
X118738095Y-48777619D02*
X118738095Y-47777619D01*
X118738095Y-47777619D02*
X119119047Y-47777619D01*
X119119047Y-47777619D02*
X119214285Y-47825238D01*
X119214285Y-47825238D02*
X119261904Y-47872857D01*
X119261904Y-47872857D02*
X119309523Y-47968095D01*
X119309523Y-47968095D02*
X119309523Y-48110952D01*
X119309523Y-48110952D02*
X119261904Y-48206190D01*
X119261904Y-48206190D02*
X119214285Y-48253809D01*
X119214285Y-48253809D02*
X119119047Y-48301428D01*
X119119047Y-48301428D02*
X118738095Y-48301428D01*
X119642857Y-47777619D02*
X119880952Y-48777619D01*
X119880952Y-48777619D02*
X120071428Y-48063333D01*
X120071428Y-48063333D02*
X120261904Y-48777619D01*
X120261904Y-48777619D02*
X120500000Y-47777619D01*
X121452380Y-48777619D02*
X121119047Y-48301428D01*
X120880952Y-48777619D02*
X120880952Y-47777619D01*
X120880952Y-47777619D02*
X121261904Y-47777619D01*
X121261904Y-47777619D02*
X121357142Y-47825238D01*
X121357142Y-47825238D02*
X121404761Y-47872857D01*
X121404761Y-47872857D02*
X121452380Y-47968095D01*
X121452380Y-47968095D02*
X121452380Y-48110952D01*
X121452380Y-48110952D02*
X121404761Y-48206190D01*
X121404761Y-48206190D02*
X121357142Y-48253809D01*
X121357142Y-48253809D02*
X121261904Y-48301428D01*
X121261904Y-48301428D02*
X120880952Y-48301428D01*
D11*
X135985714Y-63554571D02*
X136100000Y-63954571D01*
X136100000Y-63954571D02*
X136214285Y-63668857D01*
X136214285Y-63668857D02*
X136328571Y-63954571D01*
X136328571Y-63954571D02*
X136442857Y-63554571D01*
X136614285Y-63554571D02*
X136728571Y-63954571D01*
X136728571Y-63954571D02*
X136842856Y-63668857D01*
X136842856Y-63668857D02*
X136957142Y-63954571D01*
X136957142Y-63954571D02*
X137071428Y-63554571D01*
X137242856Y-63554571D02*
X137357142Y-63954571D01*
X137357142Y-63954571D02*
X137471427Y-63668857D01*
X137471427Y-63668857D02*
X137585713Y-63954571D01*
X137585713Y-63954571D02*
X137699999Y-63554571D01*
X137928570Y-63897428D02*
X137957141Y-63926000D01*
X137957141Y-63926000D02*
X137928570Y-63954571D01*
X137928570Y-63954571D02*
X137899998Y-63926000D01*
X137899998Y-63926000D02*
X137928570Y-63897428D01*
X137928570Y-63897428D02*
X137928570Y-63954571D01*
X138214284Y-63954571D02*
X138214284Y-63554571D01*
X138214284Y-63354571D02*
X138185712Y-63383142D01*
X138185712Y-63383142D02*
X138214284Y-63411714D01*
X138214284Y-63411714D02*
X138242855Y-63383142D01*
X138242855Y-63383142D02*
X138214284Y-63354571D01*
X138214284Y-63354571D02*
X138214284Y-63411714D01*
X138585712Y-63954571D02*
X138528569Y-63926000D01*
X138528569Y-63926000D02*
X138499998Y-63897428D01*
X138499998Y-63897428D02*
X138471426Y-63840285D01*
X138471426Y-63840285D02*
X138471426Y-63668857D01*
X138471426Y-63668857D02*
X138499998Y-63611714D01*
X138499998Y-63611714D02*
X138528569Y-63583142D01*
X138528569Y-63583142D02*
X138585712Y-63554571D01*
X138585712Y-63554571D02*
X138671426Y-63554571D01*
X138671426Y-63554571D02*
X138728569Y-63583142D01*
X138728569Y-63583142D02*
X138757141Y-63611714D01*
X138757141Y-63611714D02*
X138785712Y-63668857D01*
X138785712Y-63668857D02*
X138785712Y-63840285D01*
X138785712Y-63840285D02*
X138757141Y-63897428D01*
X138757141Y-63897428D02*
X138728569Y-63926000D01*
X138728569Y-63926000D02*
X138671426Y-63954571D01*
X138671426Y-63954571D02*
X138585712Y-63954571D01*
X138957140Y-63554571D02*
X139185712Y-63554571D01*
X139042855Y-63354571D02*
X139042855Y-63868857D01*
X139042855Y-63868857D02*
X139071426Y-63926000D01*
X139071426Y-63926000D02*
X139128569Y-63954571D01*
X139128569Y-63954571D02*
X139185712Y-63954571D01*
X139385712Y-63954571D02*
X139385712Y-63354571D01*
X139642855Y-63954571D02*
X139642855Y-63640285D01*
X139642855Y-63640285D02*
X139614283Y-63583142D01*
X139614283Y-63583142D02*
X139557140Y-63554571D01*
X139557140Y-63554571D02*
X139471426Y-63554571D01*
X139471426Y-63554571D02*
X139414283Y-63583142D01*
X139414283Y-63583142D02*
X139385712Y-63611714D01*
X140014283Y-63954571D02*
X139957140Y-63926000D01*
X139957140Y-63926000D02*
X139928569Y-63897428D01*
X139928569Y-63897428D02*
X139899997Y-63840285D01*
X139899997Y-63840285D02*
X139899997Y-63668857D01*
X139899997Y-63668857D02*
X139928569Y-63611714D01*
X139928569Y-63611714D02*
X139957140Y-63583142D01*
X139957140Y-63583142D02*
X140014283Y-63554571D01*
X140014283Y-63554571D02*
X140099997Y-63554571D01*
X140099997Y-63554571D02*
X140157140Y-63583142D01*
X140157140Y-63583142D02*
X140185712Y-63611714D01*
X140185712Y-63611714D02*
X140214283Y-63668857D01*
X140214283Y-63668857D02*
X140214283Y-63840285D01*
X140214283Y-63840285D02*
X140185712Y-63897428D01*
X140185712Y-63897428D02*
X140157140Y-63926000D01*
X140157140Y-63926000D02*
X140099997Y-63954571D01*
X140099997Y-63954571D02*
X140014283Y-63954571D01*
X140442854Y-63926000D02*
X140499997Y-63954571D01*
X140499997Y-63954571D02*
X140614283Y-63954571D01*
X140614283Y-63954571D02*
X140671426Y-63926000D01*
X140671426Y-63926000D02*
X140699997Y-63868857D01*
X140699997Y-63868857D02*
X140699997Y-63840285D01*
X140699997Y-63840285D02*
X140671426Y-63783142D01*
X140671426Y-63783142D02*
X140614283Y-63754571D01*
X140614283Y-63754571D02*
X140528569Y-63754571D01*
X140528569Y-63754571D02*
X140471426Y-63726000D01*
X140471426Y-63726000D02*
X140442854Y-63668857D01*
X140442854Y-63668857D02*
X140442854Y-63640285D01*
X140442854Y-63640285D02*
X140471426Y-63583142D01*
X140471426Y-63583142D02*
X140528569Y-63554571D01*
X140528569Y-63554571D02*
X140614283Y-63554571D01*
X140614283Y-63554571D02*
X140671426Y-63583142D01*
X140871425Y-63554571D02*
X141099997Y-63554571D01*
X140957140Y-63354571D02*
X140957140Y-63868857D01*
X140957140Y-63868857D02*
X140985711Y-63926000D01*
X140985711Y-63926000D02*
X141042854Y-63954571D01*
X141042854Y-63954571D02*
X141099997Y-63954571D01*
X141299997Y-63897428D02*
X141328568Y-63926000D01*
X141328568Y-63926000D02*
X141299997Y-63954571D01*
X141299997Y-63954571D02*
X141271425Y-63926000D01*
X141271425Y-63926000D02*
X141299997Y-63897428D01*
X141299997Y-63897428D02*
X141299997Y-63954571D01*
X141671425Y-63954571D02*
X141614282Y-63926000D01*
X141614282Y-63926000D02*
X141585711Y-63897428D01*
X141585711Y-63897428D02*
X141557139Y-63840285D01*
X141557139Y-63840285D02*
X141557139Y-63668857D01*
X141557139Y-63668857D02*
X141585711Y-63611714D01*
X141585711Y-63611714D02*
X141614282Y-63583142D01*
X141614282Y-63583142D02*
X141671425Y-63554571D01*
X141671425Y-63554571D02*
X141757139Y-63554571D01*
X141757139Y-63554571D02*
X141814282Y-63583142D01*
X141814282Y-63583142D02*
X141842854Y-63611714D01*
X141842854Y-63611714D02*
X141871425Y-63668857D01*
X141871425Y-63668857D02*
X141871425Y-63840285D01*
X141871425Y-63840285D02*
X141842854Y-63897428D01*
X141842854Y-63897428D02*
X141814282Y-63926000D01*
X141814282Y-63926000D02*
X141757139Y-63954571D01*
X141757139Y-63954571D02*
X141671425Y-63954571D01*
X142128568Y-63954571D02*
X142128568Y-63554571D01*
X142128568Y-63668857D02*
X142157139Y-63611714D01*
X142157139Y-63611714D02*
X142185711Y-63583142D01*
X142185711Y-63583142D02*
X142242853Y-63554571D01*
X142242853Y-63554571D02*
X142299996Y-63554571D01*
X142757140Y-63554571D02*
X142757140Y-64040285D01*
X142757140Y-64040285D02*
X142728568Y-64097428D01*
X142728568Y-64097428D02*
X142699997Y-64126000D01*
X142699997Y-64126000D02*
X142642854Y-64154571D01*
X142642854Y-64154571D02*
X142557140Y-64154571D01*
X142557140Y-64154571D02*
X142499997Y-64126000D01*
X142757140Y-63926000D02*
X142699997Y-63954571D01*
X142699997Y-63954571D02*
X142585711Y-63954571D01*
X142585711Y-63954571D02*
X142528568Y-63926000D01*
X142528568Y-63926000D02*
X142499997Y-63897428D01*
X142499997Y-63897428D02*
X142471425Y-63840285D01*
X142471425Y-63840285D02*
X142471425Y-63668857D01*
X142471425Y-63668857D02*
X142499997Y-63611714D01*
X142499997Y-63611714D02*
X142528568Y-63583142D01*
X142528568Y-63583142D02*
X142585711Y-63554571D01*
X142585711Y-63554571D02*
X142699997Y-63554571D01*
X142699997Y-63554571D02*
X142757140Y-63583142D01*
X136357142Y-64926571D02*
X136014285Y-64926571D01*
X136185714Y-64926571D02*
X136185714Y-64326571D01*
X136185714Y-64326571D02*
X136128571Y-64412285D01*
X136128571Y-64412285D02*
X136071428Y-64469428D01*
X136071428Y-64469428D02*
X136014285Y-64498000D01*
X136871429Y-64526571D02*
X136871429Y-64926571D01*
X136728571Y-64298000D02*
X136585714Y-64726571D01*
X136585714Y-64726571D02*
X136957143Y-64726571D01*
X137614286Y-64298000D02*
X137100000Y-65069428D01*
X137928571Y-64326571D02*
X137985714Y-64326571D01*
X137985714Y-64326571D02*
X138042857Y-64355142D01*
X138042857Y-64355142D02*
X138071429Y-64383714D01*
X138071429Y-64383714D02*
X138100000Y-64440857D01*
X138100000Y-64440857D02*
X138128571Y-64555142D01*
X138128571Y-64555142D02*
X138128571Y-64698000D01*
X138128571Y-64698000D02*
X138100000Y-64812285D01*
X138100000Y-64812285D02*
X138071429Y-64869428D01*
X138071429Y-64869428D02*
X138042857Y-64898000D01*
X138042857Y-64898000D02*
X137985714Y-64926571D01*
X137985714Y-64926571D02*
X137928571Y-64926571D01*
X137928571Y-64926571D02*
X137871429Y-64898000D01*
X137871429Y-64898000D02*
X137842857Y-64869428D01*
X137842857Y-64869428D02*
X137814286Y-64812285D01*
X137814286Y-64812285D02*
X137785714Y-64698000D01*
X137785714Y-64698000D02*
X137785714Y-64555142D01*
X137785714Y-64555142D02*
X137814286Y-64440857D01*
X137814286Y-64440857D02*
X137842857Y-64383714D01*
X137842857Y-64383714D02*
X137871429Y-64355142D01*
X137871429Y-64355142D02*
X137928571Y-64326571D01*
X138671429Y-64326571D02*
X138385715Y-64326571D01*
X138385715Y-64326571D02*
X138357143Y-64612285D01*
X138357143Y-64612285D02*
X138385715Y-64583714D01*
X138385715Y-64583714D02*
X138442858Y-64555142D01*
X138442858Y-64555142D02*
X138585715Y-64555142D01*
X138585715Y-64555142D02*
X138642858Y-64583714D01*
X138642858Y-64583714D02*
X138671429Y-64612285D01*
X138671429Y-64612285D02*
X138700000Y-64669428D01*
X138700000Y-64669428D02*
X138700000Y-64812285D01*
X138700000Y-64812285D02*
X138671429Y-64869428D01*
X138671429Y-64869428D02*
X138642858Y-64898000D01*
X138642858Y-64898000D02*
X138585715Y-64926571D01*
X138585715Y-64926571D02*
X138442858Y-64926571D01*
X138442858Y-64926571D02*
X138385715Y-64898000D01*
X138385715Y-64898000D02*
X138357143Y-64869428D01*
X139385715Y-64298000D02*
X138871429Y-65069428D01*
X139557143Y-64383714D02*
X139585715Y-64355142D01*
X139585715Y-64355142D02*
X139642858Y-64326571D01*
X139642858Y-64326571D02*
X139785715Y-64326571D01*
X139785715Y-64326571D02*
X139842858Y-64355142D01*
X139842858Y-64355142D02*
X139871429Y-64383714D01*
X139871429Y-64383714D02*
X139900000Y-64440857D01*
X139900000Y-64440857D02*
X139900000Y-64498000D01*
X139900000Y-64498000D02*
X139871429Y-64583714D01*
X139871429Y-64583714D02*
X139528572Y-64926571D01*
X139528572Y-64926571D02*
X139900000Y-64926571D01*
X140271429Y-64326571D02*
X140328572Y-64326571D01*
X140328572Y-64326571D02*
X140385715Y-64355142D01*
X140385715Y-64355142D02*
X140414287Y-64383714D01*
X140414287Y-64383714D02*
X140442858Y-64440857D01*
X140442858Y-64440857D02*
X140471429Y-64555142D01*
X140471429Y-64555142D02*
X140471429Y-64698000D01*
X140471429Y-64698000D02*
X140442858Y-64812285D01*
X140442858Y-64812285D02*
X140414287Y-64869428D01*
X140414287Y-64869428D02*
X140385715Y-64898000D01*
X140385715Y-64898000D02*
X140328572Y-64926571D01*
X140328572Y-64926571D02*
X140271429Y-64926571D01*
X140271429Y-64926571D02*
X140214287Y-64898000D01*
X140214287Y-64898000D02*
X140185715Y-64869428D01*
X140185715Y-64869428D02*
X140157144Y-64812285D01*
X140157144Y-64812285D02*
X140128572Y-64698000D01*
X140128572Y-64698000D02*
X140128572Y-64555142D01*
X140128572Y-64555142D02*
X140157144Y-64440857D01*
X140157144Y-64440857D02*
X140185715Y-64383714D01*
X140185715Y-64383714D02*
X140214287Y-64355142D01*
X140214287Y-64355142D02*
X140271429Y-64326571D01*
X140700001Y-64383714D02*
X140728573Y-64355142D01*
X140728573Y-64355142D02*
X140785716Y-64326571D01*
X140785716Y-64326571D02*
X140928573Y-64326571D01*
X140928573Y-64326571D02*
X140985716Y-64355142D01*
X140985716Y-64355142D02*
X141014287Y-64383714D01*
X141014287Y-64383714D02*
X141042858Y-64440857D01*
X141042858Y-64440857D02*
X141042858Y-64498000D01*
X141042858Y-64498000D02*
X141014287Y-64583714D01*
X141014287Y-64583714D02*
X140671430Y-64926571D01*
X140671430Y-64926571D02*
X141042858Y-64926571D01*
X141242859Y-64326571D02*
X141614287Y-64326571D01*
X141614287Y-64326571D02*
X141414287Y-64555142D01*
X141414287Y-64555142D02*
X141500002Y-64555142D01*
X141500002Y-64555142D02*
X141557145Y-64583714D01*
X141557145Y-64583714D02*
X141585716Y-64612285D01*
X141585716Y-64612285D02*
X141614287Y-64669428D01*
X141614287Y-64669428D02*
X141614287Y-64812285D01*
X141614287Y-64812285D02*
X141585716Y-64869428D01*
X141585716Y-64869428D02*
X141557145Y-64898000D01*
X141557145Y-64898000D02*
X141500002Y-64926571D01*
X141500002Y-64926571D02*
X141328573Y-64926571D01*
X141328573Y-64926571D02*
X141271430Y-64898000D01*
X141271430Y-64898000D02*
X141242859Y-64869428D01*
D10*
X119409523Y-51577619D02*
X119076190Y-51101428D01*
X118838095Y-51577619D02*
X118838095Y-50577619D01*
X118838095Y-50577619D02*
X119219047Y-50577619D01*
X119219047Y-50577619D02*
X119314285Y-50625238D01*
X119314285Y-50625238D02*
X119361904Y-50672857D01*
X119361904Y-50672857D02*
X119409523Y-50768095D01*
X119409523Y-50768095D02*
X119409523Y-50910952D01*
X119409523Y-50910952D02*
X119361904Y-51006190D01*
X119361904Y-51006190D02*
X119314285Y-51053809D01*
X119314285Y-51053809D02*
X119219047Y-51101428D01*
X119219047Y-51101428D02*
X118838095Y-51101428D01*
X119742857Y-50577619D02*
X120409523Y-51577619D01*
X120409523Y-50577619D02*
X119742857Y-51577619D01*
D12*
G36*
X122375143Y-48700000D02*
G01*
X122375143Y-48512421D01*
X122904173Y-47855896D01*
X122434982Y-47855896D01*
X122434982Y-47683949D01*
X123171863Y-47683949D01*
X123171863Y-47855896D01*
X122620362Y-48528053D01*
X123193356Y-48528053D01*
X123193356Y-48700000D01*
X122375143Y-48700000D01*
G37*
G36*
X123317187Y-48700000D02*
G01*
X123317187Y-47683949D01*
X124063838Y-47683949D01*
X124063838Y-47855896D01*
X123520642Y-47855896D01*
X123520642Y-48074738D01*
X124026224Y-48074738D01*
X124026224Y-48246685D01*
X123520642Y-48246685D01*
X123520642Y-48528053D01*
X124083133Y-48528053D01*
X124083133Y-48700000D01*
X123317187Y-48700000D01*
G37*
G36*
X124255812Y-48700000D02*
G01*
X124255812Y-47683949D01*
X124459023Y-47683949D01*
X124459023Y-48528053D01*
X124964605Y-48528053D01*
X124964605Y-48700000D01*
X124255812Y-48700000D01*
G37*
G36*
X125098939Y-48700000D02*
G01*
X125098939Y-47683949D01*
X125302149Y-47683949D01*
X125302149Y-48700000D01*
X125098939Y-48700000D01*
G37*
G36*
X125953457Y-47668453D02*
G01*
X125967118Y-47668861D01*
X125980605Y-47669539D01*
X125993917Y-47670489D01*
X126007055Y-47671711D01*
X126020020Y-47673204D01*
X126032810Y-47674968D01*
X126045426Y-47677004D01*
X126057867Y-47679311D01*
X126070135Y-47681889D01*
X126082229Y-47684739D01*
X126094148Y-47687861D01*
X126105894Y-47691254D01*
X126117465Y-47694918D01*
X126128862Y-47698854D01*
X126140085Y-47703061D01*
X126151134Y-47707540D01*
X126162009Y-47712290D01*
X126172709Y-47717312D01*
X126183236Y-47722605D01*
X126193588Y-47728169D01*
X126203767Y-47734005D01*
X126213771Y-47740112D01*
X126223601Y-47746491D01*
X126233257Y-47753141D01*
X126242739Y-47760062D01*
X126252046Y-47767255D01*
X126261180Y-47774720D01*
X126270139Y-47782456D01*
X126278925Y-47790463D01*
X126287536Y-47798742D01*
X126295973Y-47807292D01*
X126304193Y-47816069D01*
X126312151Y-47825058D01*
X126319849Y-47834259D01*
X126327286Y-47843673D01*
X126334462Y-47853299D01*
X126341376Y-47863137D01*
X126348030Y-47873187D01*
X126354423Y-47883450D01*
X126360555Y-47893925D01*
X126366427Y-47904612D01*
X126372037Y-47915512D01*
X126377386Y-47926624D01*
X126382474Y-47937948D01*
X126387302Y-47949484D01*
X126391868Y-47961233D01*
X126396174Y-47973194D01*
X126400218Y-47985367D01*
X126404002Y-47997753D01*
X126407524Y-48010350D01*
X126410786Y-48023161D01*
X126413787Y-48036183D01*
X126416527Y-48049418D01*
X126419006Y-48062865D01*
X126421224Y-48076524D01*
X126423181Y-48090395D01*
X126424877Y-48104479D01*
X126426312Y-48118775D01*
X126427486Y-48133284D01*
X126428400Y-48148004D01*
X126429052Y-48162937D01*
X126429443Y-48178082D01*
X126429574Y-48193440D01*
X126429444Y-48208662D01*
X126429056Y-48223675D01*
X126428408Y-48238480D01*
X126427502Y-48253077D01*
X126426336Y-48267465D01*
X126424911Y-48281645D01*
X126423228Y-48295616D01*
X126421285Y-48309379D01*
X126419083Y-48322933D01*
X126416622Y-48336279D01*
X126413902Y-48349416D01*
X126410924Y-48362345D01*
X126407686Y-48375066D01*
X126404189Y-48387578D01*
X126400433Y-48399881D01*
X126396418Y-48411976D01*
X126392144Y-48423863D01*
X126387611Y-48435541D01*
X126382819Y-48447010D01*
X126377768Y-48458272D01*
X126372457Y-48469324D01*
X126366888Y-48480169D01*
X126361060Y-48490804D01*
X126354973Y-48501232D01*
X126348627Y-48511450D01*
X126342021Y-48521461D01*
X126335157Y-48531263D01*
X126328034Y-48540856D01*
X126320651Y-48550241D01*
X126313010Y-48559418D01*
X126305109Y-48568386D01*
X126296950Y-48577145D01*
X126288574Y-48585665D01*
X126280024Y-48593915D01*
X126271299Y-48601894D01*
X126262401Y-48609603D01*
X126253329Y-48617041D01*
X126244082Y-48624209D01*
X126234661Y-48631106D01*
X126225066Y-48637733D01*
X126215297Y-48644089D01*
X126205354Y-48650175D01*
X126195237Y-48655990D01*
X126184946Y-48661535D01*
X126174480Y-48666809D01*
X126163840Y-48671813D01*
X126153027Y-48676547D01*
X126142039Y-48681010D01*
X126130877Y-48685202D01*
X126119541Y-48689124D01*
X126108031Y-48692775D01*
X126096346Y-48696156D01*
X126084488Y-48699267D01*
X126072455Y-48702107D01*
X126060249Y-48704677D01*
X126047868Y-48706976D01*
X126035313Y-48709004D01*
X126022584Y-48710762D01*
X126009681Y-48712250D01*
X125996604Y-48713467D01*
X125983352Y-48714414D01*
X125969927Y-48715090D01*
X125956327Y-48715496D01*
X125942554Y-48715631D01*
X125928600Y-48715497D01*
X125914825Y-48715093D01*
X125901231Y-48714420D01*
X125887816Y-48713479D01*
X125874582Y-48712268D01*
X125861527Y-48710788D01*
X125848652Y-48709039D01*
X125835957Y-48707021D01*
X125823442Y-48704735D01*
X125811106Y-48702179D01*
X125798950Y-48699354D01*
X125786975Y-48696260D01*
X125775179Y-48692896D01*
X125763563Y-48689264D01*
X125752126Y-48685363D01*
X125740870Y-48681193D01*
X125729793Y-48676753D01*
X125718897Y-48672045D01*
X125708180Y-48667068D01*
X125697643Y-48661821D01*
X125687286Y-48656306D01*
X125677108Y-48650521D01*
X125667111Y-48644468D01*
X125657293Y-48638145D01*
X125647655Y-48631553D01*
X125638197Y-48624693D01*
X125628919Y-48617563D01*
X125619821Y-48610164D01*
X125610903Y-48602496D01*
X125602164Y-48594559D01*
X125593605Y-48586353D01*
X125585226Y-48577878D01*
X125577067Y-48569152D01*
X125569166Y-48560223D01*
X125561525Y-48551091D01*
X125554143Y-48541757D01*
X125547019Y-48532220D01*
X125540155Y-48522480D01*
X125533550Y-48512537D01*
X125527203Y-48502392D01*
X125521116Y-48492044D01*
X125515288Y-48481493D01*
X125509719Y-48470739D01*
X125504409Y-48459783D01*
X125499358Y-48448624D01*
X125494565Y-48437262D01*
X125490032Y-48425697D01*
X125485758Y-48413930D01*
X125481743Y-48401960D01*
X125477987Y-48389787D01*
X125474491Y-48377412D01*
X125471253Y-48364833D01*
X125468274Y-48352052D01*
X125465554Y-48339069D01*
X125463093Y-48325882D01*
X125460891Y-48312493D01*
X125458949Y-48298901D01*
X125457265Y-48285106D01*
X125455840Y-48271109D01*
X125454675Y-48256909D01*
X125453768Y-48242506D01*
X125453120Y-48227900D01*
X125452732Y-48213092D01*
X125452602Y-48198080D01*
X125452666Y-48191242D01*
X125662163Y-48191242D01*
X125662240Y-48201998D01*
X125662471Y-48212591D01*
X125662856Y-48223020D01*
X125663395Y-48233286D01*
X125664089Y-48243388D01*
X125664936Y-48253326D01*
X125665938Y-48263101D01*
X125668403Y-48282159D01*
X125671485Y-48300563D01*
X125675183Y-48318313D01*
X125679497Y-48335408D01*
X125684428Y-48351849D01*
X125689975Y-48367635D01*
X125696138Y-48382766D01*
X125702918Y-48397244D01*
X125710314Y-48411066D01*
X125718326Y-48424234D01*
X125726955Y-48436748D01*
X125736200Y-48448607D01*
X125741053Y-48454291D01*
X125751111Y-48465116D01*
X125761501Y-48475243D01*
X125772223Y-48484671D01*
X125783277Y-48493401D01*
X125794663Y-48501432D01*
X125806381Y-48508765D01*
X125818431Y-48515400D01*
X125830812Y-48521336D01*
X125843526Y-48526574D01*
X125856572Y-48531113D01*
X125869950Y-48534954D01*
X125883661Y-48538097D01*
X125897703Y-48540541D01*
X125912077Y-48542287D01*
X125926783Y-48543335D01*
X125941821Y-48543684D01*
X125956854Y-48543338D01*
X125971546Y-48542299D01*
X125985896Y-48540567D01*
X125999905Y-48538143D01*
X126013572Y-48535026D01*
X126026898Y-48531216D01*
X126039881Y-48526714D01*
X126052524Y-48521519D01*
X126064825Y-48515631D01*
X126076784Y-48509051D01*
X126088402Y-48501778D01*
X126099678Y-48493813D01*
X126110613Y-48485155D01*
X126121206Y-48475804D01*
X126131457Y-48465760D01*
X126141367Y-48455024D01*
X126150802Y-48443565D01*
X126159628Y-48431413D01*
X126167846Y-48418568D01*
X126175454Y-48405030D01*
X126182454Y-48390800D01*
X126188846Y-48375878D01*
X126194628Y-48360262D01*
X126199802Y-48343954D01*
X126204368Y-48326954D01*
X126208324Y-48309261D01*
X126211672Y-48290875D01*
X126214411Y-48271796D01*
X126215552Y-48261997D01*
X126216542Y-48252025D01*
X126217379Y-48241879D01*
X126218063Y-48231561D01*
X126218596Y-48221069D01*
X126218976Y-48210404D01*
X126219205Y-48199566D01*
X126219281Y-48188555D01*
X126219207Y-48177667D01*
X126218984Y-48166953D01*
X126218613Y-48156414D01*
X126218094Y-48146049D01*
X126217426Y-48135859D01*
X126216610Y-48125844D01*
X126215646Y-48116003D01*
X126213272Y-48096845D01*
X126210305Y-48078386D01*
X126206744Y-48060625D01*
X126202590Y-48043562D01*
X126197843Y-48027198D01*
X126192502Y-48011532D01*
X126186568Y-47996564D01*
X126180040Y-47982295D01*
X126172919Y-47968724D01*
X126165204Y-47955852D01*
X126156896Y-47943678D01*
X126147994Y-47932203D01*
X126143321Y-47926727D01*
X126133633Y-47916257D01*
X126123557Y-47906462D01*
X126113093Y-47897343D01*
X126102243Y-47888900D01*
X126091005Y-47881131D01*
X126079379Y-47874039D01*
X126067366Y-47867622D01*
X126054966Y-47861880D01*
X126042179Y-47856814D01*
X126029004Y-47852423D01*
X126015442Y-47848708D01*
X126001492Y-47845669D01*
X125987156Y-47843304D01*
X125972431Y-47841616D01*
X125957320Y-47840602D01*
X125941821Y-47840265D01*
X125926289Y-47840606D01*
X125911138Y-47841631D01*
X125896369Y-47843339D01*
X125881981Y-47845730D01*
X125867976Y-47848804D01*
X125854351Y-47852561D01*
X125841109Y-47857001D01*
X125828248Y-47862124D01*
X125815769Y-47867931D01*
X125803671Y-47874421D01*
X125791955Y-47881593D01*
X125780621Y-47889449D01*
X125769668Y-47897988D01*
X125759097Y-47907210D01*
X125748907Y-47917115D01*
X125739099Y-47927704D01*
X125729783Y-47938980D01*
X125721067Y-47950949D01*
X125712953Y-47963610D01*
X125705440Y-47976964D01*
X125698527Y-47991011D01*
X125692216Y-48005751D01*
X125686506Y-48021183D01*
X125681397Y-48037308D01*
X125676889Y-48054125D01*
X125672982Y-48071635D01*
X125669676Y-48089838D01*
X125666971Y-48108733D01*
X125665844Y-48118441D01*
X125664868Y-48128321D01*
X125664041Y-48138375D01*
X125663365Y-48148602D01*
X125662839Y-48159002D01*
X125662463Y-48169576D01*
X125662238Y-48180322D01*
X125662163Y-48191242D01*
X125452666Y-48191242D01*
X125452782Y-48178948D01*
X125453320Y-48160204D01*
X125454217Y-48141846D01*
X125455472Y-48123876D01*
X125457087Y-48106294D01*
X125459060Y-48089099D01*
X125461391Y-48072291D01*
X125464082Y-48055870D01*
X125467131Y-48039837D01*
X125470539Y-48024191D01*
X125474306Y-48008932D01*
X125478431Y-47994061D01*
X125482915Y-47979578D01*
X125487758Y-47965481D01*
X125492960Y-47951772D01*
X125498520Y-47938450D01*
X125502922Y-47928835D01*
X125507519Y-47919346D01*
X125512310Y-47909983D01*
X125517296Y-47900745D01*
X125522477Y-47891634D01*
X125527852Y-47882648D01*
X125533422Y-47873789D01*
X125539187Y-47865055D01*
X125545146Y-47856448D01*
X125551299Y-47847966D01*
X125557648Y-47839610D01*
X125564191Y-47831380D01*
X125570929Y-47823276D01*
X125577861Y-47815298D01*
X125584988Y-47807446D01*
X125592309Y-47799720D01*
X125599802Y-47792151D01*
X125607380Y-47784829D01*
X125615044Y-47777756D01*
X125622794Y-47770930D01*
X125630630Y-47764353D01*
X125638551Y-47758024D01*
X125646559Y-47751942D01*
X125654652Y-47746109D01*
X125662832Y-47740524D01*
X125671097Y-47735187D01*
X125679448Y-47730098D01*
X125692135Y-47722929D01*
X125705016Y-47716319D01*
X125718090Y-47710267D01*
X125722491Y-47708374D01*
X125734387Y-47703523D01*
X125746507Y-47698985D01*
X125758850Y-47694761D01*
X125771416Y-47690849D01*
X125784205Y-47687250D01*
X125797218Y-47683965D01*
X125810454Y-47680992D01*
X125823913Y-47678332D01*
X125837595Y-47675985D01*
X125851501Y-47673951D01*
X125865629Y-47672229D01*
X125879982Y-47670821D01*
X125894557Y-47669726D01*
X125909356Y-47668944D01*
X125924378Y-47668474D01*
X125939623Y-47668318D01*
X125953457Y-47668453D01*
G37*
G36*
X126466943Y-48981367D02*
G01*
X126466943Y-48856315D01*
X127269281Y-48856315D01*
X127269281Y-48981367D01*
X126466943Y-48981367D01*
G37*
G36*
X127359406Y-47683949D02*
G01*
X127562861Y-47683949D01*
X127562861Y-48235450D01*
X127562890Y-48251484D01*
X127562979Y-48266797D01*
X127563127Y-48281388D01*
X127563334Y-48295259D01*
X127563600Y-48308408D01*
X127563925Y-48320835D01*
X127564310Y-48332542D01*
X127564754Y-48343527D01*
X127565256Y-48353791D01*
X127566121Y-48367834D01*
X127567120Y-48380255D01*
X127568251Y-48391053D01*
X127569966Y-48402925D01*
X127570432Y-48405443D01*
X127573177Y-48416949D01*
X127576557Y-48428023D01*
X127580573Y-48438662D01*
X127585224Y-48448868D01*
X127590511Y-48458641D01*
X127596433Y-48467979D01*
X127602990Y-48476884D01*
X127610183Y-48485356D01*
X127618011Y-48493394D01*
X127626474Y-48500998D01*
X127632470Y-48505826D01*
X127642034Y-48512592D01*
X127652225Y-48518692D01*
X127663043Y-48524127D01*
X127674487Y-48528896D01*
X127686559Y-48533000D01*
X127699257Y-48536438D01*
X127712582Y-48539211D01*
X127726534Y-48541318D01*
X127741113Y-48542760D01*
X127751180Y-48543351D01*
X127761526Y-48543647D01*
X127766803Y-48543684D01*
X127777475Y-48543545D01*
X127787812Y-48543127D01*
X127797816Y-48542430D01*
X127812195Y-48540863D01*
X127825822Y-48538669D01*
X127838699Y-48535849D01*
X127850824Y-48532401D01*
X127862198Y-48528327D01*
X127872820Y-48523626D01*
X127882691Y-48518298D01*
X127891811Y-48512343D01*
X127897473Y-48508025D01*
X127905407Y-48501151D01*
X127912723Y-48493994D01*
X127919421Y-48486554D01*
X127925500Y-48478830D01*
X127932644Y-48468091D01*
X127938689Y-48456848D01*
X127943635Y-48445102D01*
X127947482Y-48432851D01*
X127950230Y-48420097D01*
X127951845Y-48409737D01*
X127953301Y-48398167D01*
X127954598Y-48385386D01*
X127955737Y-48371394D01*
X127956407Y-48361393D01*
X127957008Y-48350854D01*
X127957537Y-48339778D01*
X127957996Y-48328163D01*
X127958384Y-48316010D01*
X127958702Y-48303319D01*
X127958949Y-48290089D01*
X127959126Y-48276322D01*
X127959231Y-48262017D01*
X127959267Y-48247173D01*
X127959267Y-47683949D01*
X128162477Y-47683949D01*
X128162477Y-48216643D01*
X128162461Y-48227957D01*
X128162412Y-48239061D01*
X128162331Y-48249956D01*
X128162217Y-48260641D01*
X128162071Y-48271117D01*
X128161893Y-48281383D01*
X128161682Y-48291441D01*
X128161439Y-48301288D01*
X128160855Y-48320355D01*
X128160141Y-48338585D01*
X128159298Y-48355977D01*
X128158325Y-48372531D01*
X128157222Y-48388247D01*
X128155989Y-48403126D01*
X128154627Y-48417167D01*
X128153135Y-48430371D01*
X128151513Y-48442736D01*
X128149761Y-48454264D01*
X128147879Y-48464955D01*
X128145868Y-48474808D01*
X128142553Y-48488752D01*
X128138744Y-48502285D01*
X128134442Y-48515405D01*
X128129645Y-48528114D01*
X128124355Y-48540410D01*
X128118571Y-48552294D01*
X128112294Y-48563765D01*
X128105522Y-48574825D01*
X128098257Y-48585473D01*
X128090499Y-48595708D01*
X128085052Y-48602302D01*
X128076499Y-48611826D01*
X128067418Y-48620981D01*
X128057809Y-48629767D01*
X128047671Y-48638183D01*
X128037006Y-48646230D01*
X128025812Y-48653908D01*
X128014091Y-48661217D01*
X128001841Y-48668156D01*
X127989064Y-48674727D01*
X127975758Y-48680928D01*
X127966594Y-48684856D01*
X127957165Y-48688583D01*
X127947379Y-48692069D01*
X127937236Y-48695315D01*
X127926737Y-48698320D01*
X127915880Y-48701085D01*
X127904667Y-48703610D01*
X127893097Y-48705894D01*
X127881170Y-48707937D01*
X127868886Y-48709741D01*
X127856246Y-48711303D01*
X127843249Y-48712626D01*
X127829894Y-48713708D01*
X127816183Y-48714549D01*
X127802116Y-48715150D01*
X127787691Y-48715511D01*
X127772909Y-48715631D01*
X127755168Y-48715500D01*
X127737967Y-48715108D01*
X127721309Y-48714455D01*
X127705193Y-48713540D01*
X127689619Y-48712363D01*
X127674586Y-48710926D01*
X127660096Y-48709226D01*
X127646147Y-48707266D01*
X127632741Y-48705044D01*
X127619876Y-48702560D01*
X127607553Y-48699815D01*
X127595772Y-48696809D01*
X127584533Y-48693541D01*
X127573836Y-48690012D01*
X127563681Y-48686222D01*
X127554068Y-48682170D01*
X127544878Y-48677879D01*
X127535933Y-48673434D01*
X127527232Y-48668835D01*
X127514638Y-48661646D01*
X127502594Y-48654109D01*
X127491099Y-48646224D01*
X127480154Y-48637991D01*
X127469758Y-48629411D01*
X127459912Y-48620483D01*
X127450616Y-48611207D01*
X127441869Y-48601584D01*
X127436343Y-48594975D01*
X127428497Y-48584855D01*
X127421170Y-48574645D01*
X127414363Y-48564344D01*
X127408076Y-48553954D01*
X127402307Y-48543473D01*
X127397059Y-48532902D01*
X127392330Y-48522241D01*
X127388120Y-48511490D01*
X127384430Y-48500648D01*
X127381259Y-48489717D01*
X127379434Y-48482379D01*
X127377009Y-48471155D01*
X127374740Y-48459283D01*
X127372628Y-48446762D01*
X127370672Y-48433592D01*
X127368873Y-48419773D01*
X127367230Y-48405305D01*
X127365743Y-48390189D01*
X127364413Y-48374424D01*
X127363240Y-48358010D01*
X127362223Y-48340947D01*
X127361362Y-48323236D01*
X127360658Y-48304876D01*
X127360110Y-48285867D01*
X127359719Y-48266209D01*
X127359582Y-48256137D01*
X127359485Y-48245902D01*
X127359426Y-48235506D01*
X127359406Y-48224947D01*
X127359406Y-47683949D01*
G37*
G36*
X128319525Y-48371737D02*
G01*
X128517362Y-48356106D01*
X128519734Y-48367995D01*
X128522392Y-48379484D01*
X128525336Y-48390572D01*
X128528566Y-48401260D01*
X128532083Y-48411547D01*
X128535886Y-48421433D01*
X128539975Y-48430918D01*
X128544351Y-48440003D01*
X128549012Y-48448687D01*
X128556541Y-48460962D01*
X128564714Y-48472335D01*
X128573531Y-48482806D01*
X128582992Y-48492376D01*
X128589658Y-48498255D01*
X128600251Y-48506374D01*
X128611513Y-48513694D01*
X128623446Y-48520215D01*
X128636048Y-48525938D01*
X128649321Y-48530863D01*
X128663262Y-48534989D01*
X128672929Y-48537296D01*
X128682893Y-48539248D01*
X128693155Y-48540845D01*
X128703715Y-48542087D01*
X128714573Y-48542974D01*
X128725728Y-48543507D01*
X128737180Y-48543684D01*
X128749265Y-48543525D01*
X128760971Y-48543047D01*
X128772300Y-48542250D01*
X128783251Y-48541135D01*
X128793824Y-48539701D01*
X128804019Y-48537948D01*
X128813836Y-48535877D01*
X128827854Y-48532172D01*
X128841022Y-48527751D01*
X128853339Y-48522613D01*
X128864807Y-48516757D01*
X128875424Y-48510185D01*
X128885191Y-48502896D01*
X128894096Y-48495082D01*
X128902124Y-48487027D01*
X128909277Y-48478733D01*
X128915554Y-48470198D01*
X128920955Y-48461422D01*
X128925480Y-48452406D01*
X128929129Y-48443150D01*
X128931903Y-48433653D01*
X128933801Y-48423915D01*
X128934822Y-48413938D01*
X128935017Y-48407152D01*
X128934504Y-48396418D01*
X128932966Y-48386196D01*
X128930402Y-48376487D01*
X128926812Y-48367291D01*
X128922197Y-48358608D01*
X128916556Y-48350437D01*
X128914012Y-48347313D01*
X128906691Y-48339759D01*
X128897855Y-48332515D01*
X128889696Y-48326943D01*
X128880567Y-48321570D01*
X128870469Y-48316395D01*
X128859402Y-48311419D01*
X128847365Y-48306641D01*
X128840983Y-48304326D01*
X128830584Y-48300838D01*
X128820916Y-48297811D01*
X128809647Y-48294432D01*
X128796776Y-48290701D01*
X128787306Y-48288019D01*
X128777124Y-48285179D01*
X128766231Y-48282183D01*
X128754625Y-48279031D01*
X128742308Y-48275722D01*
X128729279Y-48272257D01*
X128715539Y-48268636D01*
X128701086Y-48264857D01*
X128685922Y-48260923D01*
X128678073Y-48258897D01*
X128667956Y-48256269D01*
X128658029Y-48253606D01*
X128648293Y-48250907D01*
X128638747Y-48248173D01*
X128620225Y-48242599D01*
X128602465Y-48236885D01*
X128585466Y-48231028D01*
X128569229Y-48225031D01*
X128553753Y-48218893D01*
X128539038Y-48212613D01*
X128525085Y-48206192D01*
X128511893Y-48199630D01*
X128499462Y-48192927D01*
X128487793Y-48186082D01*
X128476885Y-48179096D01*
X128466739Y-48171969D01*
X128457353Y-48164701D01*
X128448729Y-48157292D01*
X128437490Y-48146645D01*
X128426977Y-48135711D01*
X128417188Y-48124488D01*
X128408124Y-48112977D01*
X128399785Y-48101178D01*
X128392172Y-48089091D01*
X128385284Y-48076716D01*
X128379120Y-48064052D01*
X128373682Y-48051101D01*
X128368969Y-48037861D01*
X128364981Y-48024333D01*
X128361718Y-48010517D01*
X128359180Y-47996413D01*
X128357367Y-47982021D01*
X128356280Y-47967341D01*
X128355917Y-47952372D01*
X128356299Y-47937897D01*
X128357446Y-47923598D01*
X128359356Y-47909475D01*
X128362031Y-47895528D01*
X128365470Y-47881758D01*
X128369673Y-47868163D01*
X128374640Y-47854744D01*
X128380372Y-47841501D01*
X128386868Y-47828434D01*
X128391623Y-47819821D01*
X128396718Y-47811286D01*
X128399392Y-47807048D01*
X128405007Y-47798687D01*
X128410921Y-47790580D01*
X128417135Y-47782727D01*
X128423649Y-47775128D01*
X128430462Y-47767783D01*
X128437574Y-47760691D01*
X128444987Y-47753853D01*
X128452698Y-47747269D01*
X128460710Y-47740939D01*
X128469021Y-47734862D01*
X128477631Y-47729040D01*
X128486541Y-47723471D01*
X128495751Y-47718156D01*
X128505260Y-47713094D01*
X128515069Y-47708287D01*
X128525177Y-47703733D01*
X128535598Y-47699444D01*
X128546282Y-47695432D01*
X128557229Y-47691697D01*
X128568439Y-47688239D01*
X128579913Y-47685057D01*
X128591650Y-47682152D01*
X128603650Y-47679523D01*
X128615914Y-47677172D01*
X128628441Y-47675096D01*
X128641231Y-47673298D01*
X128654285Y-47671776D01*
X128667602Y-47670531D01*
X128681182Y-47669563D01*
X128695025Y-47668871D01*
X128709132Y-47668456D01*
X128723503Y-47668318D01*
X128735257Y-47668401D01*
X128746828Y-47668651D01*
X128758216Y-47669067D01*
X128769420Y-47669650D01*
X128780442Y-47670399D01*
X128791280Y-47671314D01*
X128801935Y-47672397D01*
X128812407Y-47673645D01*
X128822696Y-47675060D01*
X128832801Y-47676642D01*
X128842724Y-47678390D01*
X128852463Y-47680305D01*
X128862019Y-47682386D01*
X128880581Y-47687047D01*
X128898411Y-47692375D01*
X128915508Y-47698368D01*
X128931872Y-47705028D01*
X128947504Y-47712353D01*
X128962403Y-47720345D01*
X128976569Y-47729002D01*
X128990002Y-47738325D01*
X129002703Y-47748314D01*
X129008778Y-47753558D01*
X129020421Y-47764436D01*
X129031352Y-47775758D01*
X129041571Y-47787524D01*
X129051078Y-47799736D01*
X129059874Y-47812391D01*
X129067958Y-47825492D01*
X129075330Y-47839037D01*
X129081990Y-47853026D01*
X129087939Y-47867461D01*
X129093176Y-47882339D01*
X129097701Y-47897663D01*
X129101514Y-47913431D01*
X129104616Y-47929643D01*
X129107006Y-47946300D01*
X129108684Y-47963402D01*
X129109651Y-47980949D01*
X128906196Y-47980949D01*
X128903505Y-47967261D01*
X128900286Y-47954316D01*
X128896538Y-47942113D01*
X128892263Y-47930654D01*
X128887459Y-47919937D01*
X128882128Y-47909963D01*
X128876268Y-47900731D01*
X128869880Y-47892243D01*
X128862965Y-47884497D01*
X128855521Y-47877494D01*
X128850265Y-47873237D01*
X128841827Y-47867345D01*
X128832633Y-47862032D01*
X128822684Y-47857298D01*
X128811980Y-47853145D01*
X128800519Y-47849570D01*
X128788303Y-47846576D01*
X128775332Y-47844161D01*
X128761605Y-47842325D01*
X128747122Y-47841070D01*
X128737047Y-47840554D01*
X128726636Y-47840297D01*
X128721304Y-47840265D01*
X128710401Y-47840404D01*
X128699796Y-47840822D01*
X128689488Y-47841518D01*
X128679478Y-47842493D01*
X128669765Y-47843747D01*
X128655755Y-47846150D01*
X128642414Y-47849180D01*
X128629743Y-47852836D01*
X128617742Y-47857119D01*
X128606410Y-47862029D01*
X128595748Y-47867566D01*
X128585756Y-47873730D01*
X128582575Y-47875924D01*
X128573287Y-47883480D01*
X128565573Y-47891800D01*
X128559433Y-47900883D01*
X128554868Y-47910729D01*
X128551877Y-47921338D01*
X128550460Y-47932711D01*
X128550334Y-47937473D01*
X128551074Y-47948143D01*
X128553292Y-47958325D01*
X128556989Y-47968017D01*
X128562165Y-47977220D01*
X128568820Y-47985934D01*
X128576953Y-47994160D01*
X128580621Y-47997313D01*
X128588779Y-48003307D01*
X128598873Y-48009383D01*
X128610904Y-48015540D01*
X128620000Y-48019690D01*
X128629956Y-48023877D01*
X128640774Y-48028100D01*
X128652452Y-48032359D01*
X128664990Y-48036654D01*
X128678389Y-48040985D01*
X128692649Y-48045353D01*
X128707769Y-48049757D01*
X128723750Y-48054197D01*
X128740591Y-48058674D01*
X128758293Y-48063187D01*
X128767466Y-48065457D01*
X128785726Y-48069981D01*
X128803382Y-48074516D01*
X128820432Y-48079064D01*
X128836877Y-48083622D01*
X128852718Y-48088192D01*
X128867953Y-48092774D01*
X128882584Y-48097367D01*
X128896610Y-48101971D01*
X128910031Y-48106587D01*
X128922847Y-48111214D01*
X128935058Y-48115853D01*
X128946664Y-48120503D01*
X128957666Y-48125164D01*
X128968062Y-48129837D01*
X128977854Y-48134522D01*
X128987041Y-48139218D01*
X128995804Y-48144027D01*
X129004325Y-48149053D01*
X129012603Y-48154293D01*
X129024567Y-48162559D01*
X129035985Y-48171309D01*
X129046858Y-48180545D01*
X129057185Y-48190266D01*
X129066967Y-48200472D01*
X129076205Y-48211163D01*
X129084896Y-48222339D01*
X129093043Y-48234000D01*
X129098171Y-48242044D01*
X129105373Y-48254540D01*
X129111867Y-48267572D01*
X129115802Y-48276559D01*
X129119423Y-48285784D01*
X129122729Y-48295247D01*
X129125720Y-48304949D01*
X129128396Y-48314890D01*
X129130758Y-48325069D01*
X129132804Y-48335486D01*
X129134536Y-48346142D01*
X129135952Y-48357037D01*
X129137054Y-48368170D01*
X129137842Y-48379541D01*
X129138314Y-48391152D01*
X129138471Y-48403000D01*
X129138283Y-48413826D01*
X129137719Y-48424566D01*
X129136780Y-48435220D01*
X129135464Y-48445788D01*
X129133772Y-48456271D01*
X129131705Y-48466667D01*
X129129262Y-48476978D01*
X129126442Y-48487203D01*
X129123247Y-48497342D01*
X129119676Y-48507395D01*
X129115729Y-48517362D01*
X129111406Y-48527243D01*
X129106707Y-48537039D01*
X129101633Y-48546749D01*
X129096182Y-48556372D01*
X129090355Y-48565910D01*
X129084185Y-48575252D01*
X129077704Y-48584289D01*
X129070912Y-48593021D01*
X129063809Y-48601448D01*
X129056395Y-48609569D01*
X129048670Y-48617384D01*
X129040634Y-48624895D01*
X129032287Y-48632100D01*
X129023628Y-48639000D01*
X129014659Y-48645594D01*
X129005379Y-48651884D01*
X128995788Y-48657868D01*
X128985885Y-48663546D01*
X128975672Y-48668920D01*
X128965148Y-48673988D01*
X128954312Y-48678750D01*
X128943152Y-48683216D01*
X128931655Y-48687394D01*
X128919820Y-48691284D01*
X128907646Y-48694886D01*
X128895136Y-48698199D01*
X128882287Y-48701225D01*
X128869101Y-48703962D01*
X128855577Y-48706411D01*
X128841715Y-48708572D01*
X128827516Y-48710445D01*
X128812979Y-48712029D01*
X128798104Y-48713326D01*
X128782891Y-48714334D01*
X128767340Y-48715055D01*
X128751452Y-48715487D01*
X128735226Y-48715631D01*
X128723376Y-48715545D01*
X128711698Y-48715289D01*
X128700193Y-48714860D01*
X128688862Y-48714261D01*
X128677704Y-48713490D01*
X128666719Y-48712548D01*
X128655907Y-48711435D01*
X128645269Y-48710151D01*
X128634803Y-48708695D01*
X128624511Y-48707068D01*
X128614392Y-48705270D01*
X128604446Y-48703301D01*
X128594673Y-48701160D01*
X128585073Y-48698848D01*
X128566393Y-48693710D01*
X128548406Y-48687888D01*
X128531112Y-48681380D01*
X128514510Y-48674187D01*
X128498601Y-48666309D01*
X128483384Y-48657746D01*
X128468860Y-48648499D01*
X128455029Y-48638566D01*
X128441891Y-48627948D01*
X128429420Y-48616643D01*
X128417592Y-48604710D01*
X128406408Y-48592150D01*
X128395866Y-48578962D01*
X128385968Y-48565146D01*
X128376712Y-48550702D01*
X128368100Y-48535631D01*
X128360130Y-48519931D01*
X128352804Y-48503604D01*
X128346121Y-48486650D01*
X128340080Y-48469067D01*
X128334683Y-48450857D01*
X128329929Y-48432018D01*
X128327793Y-48422364D01*
X128325818Y-48412552D01*
X128324004Y-48402584D01*
X128322350Y-48392459D01*
X128320857Y-48382176D01*
X128319525Y-48371737D01*
G37*
G36*
X129722005Y-47683989D02*
G01*
X129736221Y-47684110D01*
X129749963Y-47684310D01*
X129763229Y-47684590D01*
X129776020Y-47684951D01*
X129788337Y-47685392D01*
X129800178Y-47685913D01*
X129811543Y-47686514D01*
X129822434Y-47687195D01*
X129832850Y-47687956D01*
X129842790Y-47688798D01*
X129856810Y-47690210D01*
X129869761Y-47691803D01*
X129881643Y-47693576D01*
X129885366Y-47694207D01*
X129896293Y-47696280D01*
X129907001Y-47698744D01*
X129917491Y-47701598D01*
X129927761Y-47704843D01*
X129937812Y-47708479D01*
X129947645Y-47712506D01*
X129957258Y-47716923D01*
X129966653Y-47721731D01*
X129975829Y-47726929D01*
X129984785Y-47732518D01*
X129990635Y-47736461D01*
X129999198Y-47742650D01*
X130007487Y-47749216D01*
X130015502Y-47756159D01*
X130023241Y-47763481D01*
X130030706Y-47771180D01*
X130037896Y-47779257D01*
X130044811Y-47787712D01*
X130051451Y-47796545D01*
X130057817Y-47805756D01*
X130063907Y-47815344D01*
X130067815Y-47821946D01*
X130073359Y-47832046D01*
X130078357Y-47842377D01*
X130082810Y-47852940D01*
X130086717Y-47863735D01*
X130090080Y-47874762D01*
X130092897Y-47886020D01*
X130095169Y-47897511D01*
X130096895Y-47909233D01*
X130098077Y-47921187D01*
X130098713Y-47933373D01*
X130098834Y-47941625D01*
X130098499Y-47954986D01*
X130097495Y-47968141D01*
X130095820Y-47981090D01*
X130093476Y-47993832D01*
X130090462Y-48006369D01*
X130086778Y-48018699D01*
X130082425Y-48030824D01*
X130077402Y-48042742D01*
X130071709Y-48054454D01*
X130065346Y-48065960D01*
X130060732Y-48073517D01*
X130053350Y-48084518D01*
X130045491Y-48094992D01*
X130037155Y-48104937D01*
X130028343Y-48114355D01*
X130019055Y-48123244D01*
X130009290Y-48131605D01*
X129999048Y-48139439D01*
X129988329Y-48146744D01*
X129977135Y-48153521D01*
X129965463Y-48159770D01*
X129957418Y-48163642D01*
X129968760Y-48167148D01*
X129979770Y-48170950D01*
X129990445Y-48175048D01*
X130000786Y-48179442D01*
X130010793Y-48184131D01*
X130020467Y-48189116D01*
X130029806Y-48194397D01*
X130038811Y-48199973D01*
X130047483Y-48205846D01*
X130055821Y-48212014D01*
X130063824Y-48218478D01*
X130071494Y-48225237D01*
X130078830Y-48232293D01*
X130085832Y-48239644D01*
X130092500Y-48247291D01*
X130098834Y-48255233D01*
X130104838Y-48263413D01*
X130110455Y-48271769D01*
X130115684Y-48280303D01*
X130120526Y-48289015D01*
X130124981Y-48297904D01*
X130129048Y-48306971D01*
X130132728Y-48316215D01*
X130136020Y-48325636D01*
X130138925Y-48335235D01*
X130141443Y-48345012D01*
X130143573Y-48354965D01*
X130145317Y-48365097D01*
X130146672Y-48375406D01*
X130147641Y-48385892D01*
X130148222Y-48396555D01*
X130148415Y-48407397D01*
X130148134Y-48420279D01*
X130147291Y-48433096D01*
X130145884Y-48445850D01*
X130143916Y-48458539D01*
X130141385Y-48471163D01*
X130138292Y-48483723D01*
X130134636Y-48496219D01*
X130130418Y-48508650D01*
X130125637Y-48521017D01*
X130120294Y-48533320D01*
X130116420Y-48541486D01*
X130110216Y-48553438D01*
X130103605Y-48564930D01*
X130096587Y-48575963D01*
X130089160Y-48586537D01*
X130081325Y-48596652D01*
X130073083Y-48606307D01*
X130064432Y-48615502D01*
X130055374Y-48624238D01*
X130045908Y-48632515D01*
X130036034Y-48640333D01*
X130029225Y-48645289D01*
X130018648Y-48652309D01*
X130007615Y-48658805D01*
X129996128Y-48664777D01*
X129984185Y-48670225D01*
X129971787Y-48675149D01*
X129958934Y-48679550D01*
X129945627Y-48683427D01*
X129931864Y-48686780D01*
X129917646Y-48689609D01*
X129907914Y-48691204D01*
X129897980Y-48692567D01*
X129892937Y-48693161D01*
X129882150Y-48694134D01*
X129868837Y-48695038D01*
X129858560Y-48695603D01*
X129847161Y-48696137D01*
X129834640Y-48696641D01*
X129820996Y-48697114D01*
X129806231Y-48697557D01*
X129790344Y-48697969D01*
X129773335Y-48698351D01*
X129755204Y-48698702D01*
X129735950Y-48699023D01*
X129725903Y-48699171D01*
X129715575Y-48699313D01*
X129704967Y-48699446D01*
X129694078Y-48699572D01*
X129682909Y-48699690D01*
X129671459Y-48699801D01*
X129659728Y-48699904D01*
X129647718Y-48700000D01*
X129304801Y-48700000D01*
X129304801Y-48262316D01*
X129508011Y-48262316D01*
X129508011Y-48528053D01*
X129696322Y-48528053D01*
X129709747Y-48528029D01*
X129722544Y-48527957D01*
X129734713Y-48527838D01*
X129746254Y-48527671D01*
X129757168Y-48527456D01*
X129767454Y-48527194D01*
X129781706Y-48526711D01*
X129794545Y-48526121D01*
X129805971Y-48525423D01*
X129815986Y-48524618D01*
X129827141Y-48523378D01*
X129835785Y-48521946D01*
X129846875Y-48519565D01*
X129857431Y-48516451D01*
X129867452Y-48512604D01*
X129876939Y-48508025D01*
X129885893Y-48502712D01*
X129894311Y-48496667D01*
X129902196Y-48489890D01*
X129909546Y-48482379D01*
X129916244Y-48474166D01*
X129922048Y-48465282D01*
X129926960Y-48455726D01*
X129930978Y-48445498D01*
X129934104Y-48434599D01*
X129936336Y-48423028D01*
X129937676Y-48410785D01*
X129938122Y-48397871D01*
X129937779Y-48386911D01*
X129936748Y-48376378D01*
X129935031Y-48366272D01*
X129932627Y-48356594D01*
X129928656Y-48345097D01*
X129923611Y-48334269D01*
X129917493Y-48324108D01*
X129916140Y-48322156D01*
X129908794Y-48312804D01*
X129900494Y-48304286D01*
X129891239Y-48296603D01*
X129883149Y-48291058D01*
X129874447Y-48286047D01*
X129865136Y-48281571D01*
X129855213Y-48277629D01*
X129852637Y-48276727D01*
X129840734Y-48273349D01*
X129829808Y-48271112D01*
X129817170Y-48269127D01*
X129802818Y-48267397D01*
X129792298Y-48266383D01*
X129781017Y-48265483D01*
X129768975Y-48264695D01*
X129756171Y-48264019D01*
X129742606Y-48263456D01*
X129728280Y-48263006D01*
X129713192Y-48262668D01*
X129697343Y-48262443D01*
X129680733Y-48262330D01*
X129672142Y-48262316D01*
X129508011Y-48262316D01*
X129304801Y-48262316D01*
X129304801Y-47855896D01*
X129508011Y-47855896D01*
X129508011Y-48090369D01*
X129641367Y-48090369D01*
X129655854Y-48090356D01*
X129669638Y-48090316D01*
X129682721Y-48090249D01*
X129695101Y-48090156D01*
X129706779Y-48090035D01*
X129717754Y-48089889D01*
X129728028Y-48089715D01*
X129742121Y-48089404D01*
X129754635Y-48089034D01*
X129765569Y-48088603D01*
X129777689Y-48087935D01*
X129788890Y-48086950D01*
X129801606Y-48084992D01*
X129813620Y-48082294D01*
X129824931Y-48078856D01*
X129835540Y-48074677D01*
X129845447Y-48069758D01*
X129854652Y-48064098D01*
X129863155Y-48057698D01*
X129870956Y-48050558D01*
X129877997Y-48042750D01*
X129884099Y-48034346D01*
X129889262Y-48025347D01*
X129893487Y-48015753D01*
X129896773Y-48005564D01*
X129899120Y-47994779D01*
X129900528Y-47983399D01*
X129900997Y-47971423D01*
X129900593Y-47959917D01*
X129899379Y-47948968D01*
X129897357Y-47938576D01*
X129894525Y-47928742D01*
X129890884Y-47919464D01*
X129886434Y-47910744D01*
X129879734Y-47900627D01*
X129875108Y-47894975D01*
X129866479Y-47886376D01*
X129858692Y-47880305D01*
X129850119Y-47874951D01*
X129840759Y-47870314D01*
X129830614Y-47866394D01*
X129819682Y-47863192D01*
X129807964Y-47860708D01*
X129798660Y-47859316D01*
X129786428Y-47858331D01*
X129776434Y-47857820D01*
X129764447Y-47857369D01*
X129750467Y-47856978D01*
X129740041Y-47856751D01*
X129728730Y-47856551D01*
X129716533Y-47856377D01*
X129703451Y-47856230D01*
X129689483Y-47856110D01*
X129674630Y-47856016D01*
X129658892Y-47855950D01*
X129642268Y-47855910D01*
X129624759Y-47855896D01*
X129508011Y-47855896D01*
X129304801Y-47855896D01*
X129304801Y-47683949D01*
X129707313Y-47683949D01*
X129722005Y-47683989D01*
G37*
G36*
X122661639Y-50380000D02*
G01*
X122367571Y-49645317D01*
X122570293Y-49645317D01*
X122707557Y-50020230D01*
X122747369Y-50145526D01*
X122751154Y-50134123D01*
X122754574Y-50123728D01*
X122757627Y-50114340D01*
X122760928Y-50104021D01*
X122764134Y-50093717D01*
X122767126Y-50083505D01*
X122767397Y-50082512D01*
X122770409Y-50072812D01*
X122773493Y-50063101D01*
X122776649Y-50053378D01*
X122779876Y-50043643D01*
X122783175Y-50033896D01*
X122786545Y-50024137D01*
X122787913Y-50020230D01*
X122926643Y-49645317D01*
X123125212Y-49645317D01*
X122835296Y-50380000D01*
X122661639Y-50380000D01*
G37*
G36*
X123692344Y-50380000D02*
G01*
X123499392Y-50380000D01*
X123499392Y-49644829D01*
X123486025Y-49657863D01*
X123472362Y-49670466D01*
X123458403Y-49682638D01*
X123444148Y-49694379D01*
X123429597Y-49705689D01*
X123414751Y-49716567D01*
X123399609Y-49727014D01*
X123384171Y-49737030D01*
X123368437Y-49746615D01*
X123352408Y-49755768D01*
X123336083Y-49764490D01*
X123319462Y-49772781D01*
X123302545Y-49780641D01*
X123285333Y-49788069D01*
X123267824Y-49795067D01*
X123250020Y-49801632D01*
X123250020Y-49614054D01*
X123259506Y-49610862D01*
X123269094Y-49607330D01*
X123278786Y-49603458D01*
X123288580Y-49599247D01*
X123298478Y-49594696D01*
X123308478Y-49589805D01*
X123318582Y-49584575D01*
X123328789Y-49579005D01*
X123339098Y-49573096D01*
X123349511Y-49566846D01*
X123360027Y-49560258D01*
X123370646Y-49553329D01*
X123381368Y-49546061D01*
X123392193Y-49538453D01*
X123403121Y-49530506D01*
X123414152Y-49522219D01*
X123425017Y-49513643D01*
X123435447Y-49504893D01*
X123445441Y-49495966D01*
X123455001Y-49486864D01*
X123464126Y-49477587D01*
X123472816Y-49468134D01*
X123481070Y-49458506D01*
X123488890Y-49448702D01*
X123496274Y-49438722D01*
X123503224Y-49428567D01*
X123509738Y-49418236D01*
X123515818Y-49407730D01*
X123521462Y-49397048D01*
X123526671Y-49386191D01*
X123531445Y-49375158D01*
X123535785Y-49363949D01*
X123692344Y-49363949D01*
X123692344Y-50380000D01*
G37*
G36*
X124018164Y-50380000D02*
G01*
X124018164Y-50192421D01*
X124211360Y-50192421D01*
X124211360Y-50380000D01*
X124018164Y-50380000D01*
G37*
G36*
X124710284Y-49364359D02*
G01*
X124727797Y-49365586D01*
X124744813Y-49367633D01*
X124761334Y-49370498D01*
X124777359Y-49374182D01*
X124792887Y-49378684D01*
X124807920Y-49384005D01*
X124822456Y-49390144D01*
X124836496Y-49397102D01*
X124850040Y-49404879D01*
X124863088Y-49413474D01*
X124875640Y-49422888D01*
X124887695Y-49433121D01*
X124899255Y-49444172D01*
X124910318Y-49456041D01*
X124920886Y-49468729D01*
X124926926Y-49476643D01*
X124932775Y-49484876D01*
X124938433Y-49493428D01*
X124943898Y-49502298D01*
X124949172Y-49511486D01*
X124954254Y-49520994D01*
X124959144Y-49530820D01*
X124963842Y-49540964D01*
X124968349Y-49551428D01*
X124972663Y-49562210D01*
X124976786Y-49573310D01*
X124980718Y-49584730D01*
X124984457Y-49596467D01*
X124988005Y-49608524D01*
X124991361Y-49620899D01*
X124994525Y-49633593D01*
X124997497Y-49646606D01*
X125000278Y-49659937D01*
X125002867Y-49673587D01*
X125005264Y-49687556D01*
X125007469Y-49701843D01*
X125009483Y-49716449D01*
X125011305Y-49731374D01*
X125012935Y-49746617D01*
X125014373Y-49762179D01*
X125015620Y-49778059D01*
X125016674Y-49794258D01*
X125017537Y-49810776D01*
X125018208Y-49827613D01*
X125018688Y-49844768D01*
X125018975Y-49862242D01*
X125019071Y-49880034D01*
X125018975Y-49897798D01*
X125018685Y-49915247D01*
X125018202Y-49932382D01*
X125017526Y-49949201D01*
X125016656Y-49965705D01*
X125015594Y-49981895D01*
X125014338Y-49997770D01*
X125012889Y-50013330D01*
X125011247Y-50028575D01*
X125009411Y-50043505D01*
X125007383Y-50058121D01*
X125005161Y-50072421D01*
X125002746Y-50086407D01*
X125000138Y-50100078D01*
X124997336Y-50113434D01*
X124994342Y-50126475D01*
X124991154Y-50139202D01*
X124987773Y-50151613D01*
X124984199Y-50163710D01*
X124980431Y-50175492D01*
X124976471Y-50186959D01*
X124972317Y-50198111D01*
X124967970Y-50208948D01*
X124963430Y-50219471D01*
X124958696Y-50229679D01*
X124953770Y-50239571D01*
X124948650Y-50249149D01*
X124943337Y-50258412D01*
X124937831Y-50267361D01*
X124932131Y-50275994D01*
X124926239Y-50284313D01*
X124920153Y-50292316D01*
X124909674Y-50304827D01*
X124898694Y-50316531D01*
X124887212Y-50327427D01*
X124875228Y-50337517D01*
X124862742Y-50346799D01*
X124849754Y-50355274D01*
X124836264Y-50362942D01*
X124822273Y-50369802D01*
X124807779Y-50375856D01*
X124792784Y-50381102D01*
X124777287Y-50385542D01*
X124761288Y-50389174D01*
X124744788Y-50391999D01*
X124727785Y-50394017D01*
X124710281Y-50395227D01*
X124692274Y-50395631D01*
X124674117Y-50395188D01*
X124656405Y-50393860D01*
X124639137Y-50391647D01*
X124622314Y-50388548D01*
X124605936Y-50384564D01*
X124590002Y-50379694D01*
X124574512Y-50373939D01*
X124559467Y-50367299D01*
X124544867Y-50359773D01*
X124530712Y-50351362D01*
X124517001Y-50342066D01*
X124503734Y-50331884D01*
X124490912Y-50320816D01*
X124478535Y-50308864D01*
X124466603Y-50296026D01*
X124455115Y-50282302D01*
X124444231Y-50267443D01*
X124434049Y-50251196D01*
X124429221Y-50242552D01*
X124424569Y-50233562D01*
X124420093Y-50224224D01*
X124415792Y-50214540D01*
X124411666Y-50204509D01*
X124407716Y-50194132D01*
X124403942Y-50183407D01*
X124400343Y-50172336D01*
X124396920Y-50160918D01*
X124393672Y-50149153D01*
X124390600Y-50137041D01*
X124387704Y-50124583D01*
X124384983Y-50111777D01*
X124382437Y-50098625D01*
X124380067Y-50085126D01*
X124377873Y-50071280D01*
X124375854Y-50057088D01*
X124374011Y-50042548D01*
X124372343Y-50027662D01*
X124370851Y-50012429D01*
X124369534Y-49996849D01*
X124368393Y-49980923D01*
X124367428Y-49964650D01*
X124366638Y-49948029D01*
X124366023Y-49931062D01*
X124365584Y-49913748D01*
X124365321Y-49896088D01*
X124365243Y-49880034D01*
X124567222Y-49880034D01*
X124567240Y-49890691D01*
X124567292Y-49901138D01*
X124567379Y-49911374D01*
X124567501Y-49921399D01*
X124567657Y-49931214D01*
X124568075Y-49950214D01*
X124568632Y-49968372D01*
X124569329Y-49985688D01*
X124570165Y-50002163D01*
X124571140Y-50017797D01*
X124572254Y-50032589D01*
X124573508Y-50046539D01*
X124574901Y-50059648D01*
X124576433Y-50071916D01*
X124578105Y-50083342D01*
X124579915Y-50093926D01*
X124581865Y-50103669D01*
X124585052Y-50116706D01*
X124588476Y-50128374D01*
X124592064Y-50139291D01*
X124595815Y-50149457D01*
X124599729Y-50158872D01*
X124605202Y-50170256D01*
X124610964Y-50180304D01*
X124617017Y-50189017D01*
X124624991Y-50198029D01*
X124629993Y-50202435D01*
X124638726Y-50208557D01*
X124647829Y-50213641D01*
X124657302Y-50217687D01*
X124667144Y-50220696D01*
X124677356Y-50222667D01*
X124687938Y-50223601D01*
X124692274Y-50223684D01*
X124703010Y-50223153D01*
X124713388Y-50221561D01*
X124723408Y-50218908D01*
X124733071Y-50215193D01*
X124742375Y-50210416D01*
X124751322Y-50204579D01*
X124754801Y-50201946D01*
X124763115Y-50194319D01*
X124770810Y-50185021D01*
X124776519Y-50176381D01*
X124781831Y-50166672D01*
X124786747Y-50155895D01*
X124791265Y-50144049D01*
X124794394Y-50134464D01*
X124797299Y-50124277D01*
X124800878Y-50109887D01*
X124803069Y-50099316D01*
X124805103Y-50087963D01*
X124806980Y-50075827D01*
X124808701Y-50062909D01*
X124810266Y-50049208D01*
X124811674Y-50034726D01*
X124812926Y-50019460D01*
X124814021Y-50003413D01*
X124814960Y-49986583D01*
X124815743Y-49968971D01*
X124816368Y-49950576D01*
X124816838Y-49931399D01*
X124817014Y-49921518D01*
X124817151Y-49911440D01*
X124817249Y-49901167D01*
X124817307Y-49890699D01*
X124817327Y-49880034D01*
X124817309Y-49869393D01*
X124817257Y-49858962D01*
X124817170Y-49848741D01*
X124817048Y-49838731D01*
X124816891Y-49828931D01*
X124816474Y-49809962D01*
X124815916Y-49791834D01*
X124815220Y-49774548D01*
X124814384Y-49758104D01*
X124813409Y-49742501D01*
X124812295Y-49727740D01*
X124811041Y-49713820D01*
X124809648Y-49700741D01*
X124808116Y-49688504D01*
X124806444Y-49677109D01*
X124804634Y-49666555D01*
X124802683Y-49656842D01*
X124799497Y-49643852D01*
X124796070Y-49632137D01*
X124792476Y-49621174D01*
X124788714Y-49610962D01*
X124784785Y-49601502D01*
X124779286Y-49590057D01*
X124773489Y-49579948D01*
X124767394Y-49571174D01*
X124761002Y-49563736D01*
X124754312Y-49557634D01*
X124745649Y-49551372D01*
X124736605Y-49546171D01*
X124727178Y-49542031D01*
X124717370Y-49538953D01*
X124707181Y-49536936D01*
X124696610Y-49535981D01*
X124692274Y-49535896D01*
X124681539Y-49536427D01*
X124671161Y-49538019D01*
X124661141Y-49540673D01*
X124651478Y-49544387D01*
X124642174Y-49549164D01*
X124633227Y-49555002D01*
X124629748Y-49557634D01*
X124621434Y-49565262D01*
X124613739Y-49574559D01*
X124608030Y-49583199D01*
X124602717Y-49592908D01*
X124597802Y-49603685D01*
X124593284Y-49615531D01*
X124590155Y-49625116D01*
X124587250Y-49635303D01*
X124584825Y-49644788D01*
X124582556Y-49655049D01*
X124580444Y-49666083D01*
X124578488Y-49677893D01*
X124576688Y-49690477D01*
X124575046Y-49703836D01*
X124573559Y-49717970D01*
X124572229Y-49732878D01*
X124571056Y-49748561D01*
X124570039Y-49765019D01*
X124569178Y-49782251D01*
X124568474Y-49800259D01*
X124567926Y-49819040D01*
X124567535Y-49838597D01*
X124567398Y-49848666D01*
X124567300Y-49858928D01*
X124567242Y-49869385D01*
X124567222Y-49880034D01*
X124365243Y-49880034D01*
X124365233Y-49878080D01*
X124365330Y-49860407D01*
X124365620Y-49843045D01*
X124366103Y-49825995D01*
X124366779Y-49809257D01*
X124367648Y-49792832D01*
X124368711Y-49776718D01*
X124369967Y-49760916D01*
X124371416Y-49745426D01*
X124373058Y-49730248D01*
X124374893Y-49715382D01*
X124376922Y-49700828D01*
X124379144Y-49686586D01*
X124381559Y-49672656D01*
X124384167Y-49659039D01*
X124386968Y-49645733D01*
X124389963Y-49632739D01*
X124393151Y-49620056D01*
X124396532Y-49607686D01*
X124400106Y-49595628D01*
X124403873Y-49583882D01*
X124407834Y-49572448D01*
X124411988Y-49561326D01*
X124416335Y-49550516D01*
X124420875Y-49540018D01*
X124425608Y-49529832D01*
X124430535Y-49519957D01*
X124435655Y-49510395D01*
X124440968Y-49501145D01*
X124446474Y-49492207D01*
X124452173Y-49483581D01*
X124458066Y-49475266D01*
X124464152Y-49467264D01*
X124474631Y-49454753D01*
X124485614Y-49443050D01*
X124497102Y-49432153D01*
X124509092Y-49422064D01*
X124521587Y-49412782D01*
X124534585Y-49404307D01*
X124548087Y-49396639D01*
X124562093Y-49389778D01*
X124576603Y-49383724D01*
X124591616Y-49378478D01*
X124607133Y-49374039D01*
X124623154Y-49370406D01*
X124639678Y-49367581D01*
X124656707Y-49365564D01*
X124674239Y-49364353D01*
X124692274Y-49363949D01*
X124710284Y-49364359D01*
G37*
D10*
%TO.C,J1*%
X148266666Y-56662619D02*
X148266666Y-57376904D01*
X148266666Y-57376904D02*
X148219047Y-57519761D01*
X148219047Y-57519761D02*
X148123809Y-57615000D01*
X148123809Y-57615000D02*
X147980952Y-57662619D01*
X147980952Y-57662619D02*
X147885714Y-57662619D01*
X149266666Y-57662619D02*
X148695238Y-57662619D01*
X148980952Y-57662619D02*
X148980952Y-56662619D01*
X148980952Y-56662619D02*
X148885714Y-56805476D01*
X148885714Y-56805476D02*
X148790476Y-56900714D01*
X148790476Y-56900714D02*
X148695238Y-56948333D01*
%TO.C,J3*%
X127182619Y-64443333D02*
X127896904Y-64443333D01*
X127896904Y-64443333D02*
X128039761Y-64490952D01*
X128039761Y-64490952D02*
X128135000Y-64586190D01*
X128135000Y-64586190D02*
X128182619Y-64729047D01*
X128182619Y-64729047D02*
X128182619Y-64824285D01*
X127182619Y-64062380D02*
X127182619Y-63443333D01*
X127182619Y-63443333D02*
X127563571Y-63776666D01*
X127563571Y-63776666D02*
X127563571Y-63633809D01*
X127563571Y-63633809D02*
X127611190Y-63538571D01*
X127611190Y-63538571D02*
X127658809Y-63490952D01*
X127658809Y-63490952D02*
X127754047Y-63443333D01*
X127754047Y-63443333D02*
X127992142Y-63443333D01*
X127992142Y-63443333D02*
X128087380Y-63490952D01*
X128087380Y-63490952D02*
X128135000Y-63538571D01*
X128135000Y-63538571D02*
X128182619Y-63633809D01*
X128182619Y-63633809D02*
X128182619Y-63919523D01*
X128182619Y-63919523D02*
X128135000Y-64014761D01*
X128135000Y-64014761D02*
X128087380Y-64062380D01*
%TO.C,U4*%
X122318095Y-55212619D02*
X122318095Y-56022142D01*
X122318095Y-56022142D02*
X122365714Y-56117380D01*
X122365714Y-56117380D02*
X122413333Y-56165000D01*
X122413333Y-56165000D02*
X122508571Y-56212619D01*
X122508571Y-56212619D02*
X122699047Y-56212619D01*
X122699047Y-56212619D02*
X122794285Y-56165000D01*
X122794285Y-56165000D02*
X122841904Y-56117380D01*
X122841904Y-56117380D02*
X122889523Y-56022142D01*
X122889523Y-56022142D02*
X122889523Y-55212619D01*
X123794285Y-55545952D02*
X123794285Y-56212619D01*
X123556190Y-55165000D02*
X123318095Y-55879285D01*
X123318095Y-55879285D02*
X123937142Y-55879285D01*
%TO.C,R4*%
X116508333Y-52982619D02*
X116175000Y-52506428D01*
X115936905Y-52982619D02*
X115936905Y-51982619D01*
X115936905Y-51982619D02*
X116317857Y-51982619D01*
X116317857Y-51982619D02*
X116413095Y-52030238D01*
X116413095Y-52030238D02*
X116460714Y-52077857D01*
X116460714Y-52077857D02*
X116508333Y-52173095D01*
X116508333Y-52173095D02*
X116508333Y-52315952D01*
X116508333Y-52315952D02*
X116460714Y-52411190D01*
X116460714Y-52411190D02*
X116413095Y-52458809D01*
X116413095Y-52458809D02*
X116317857Y-52506428D01*
X116317857Y-52506428D02*
X115936905Y-52506428D01*
X117365476Y-52315952D02*
X117365476Y-52982619D01*
X117127381Y-51935000D02*
X116889286Y-52649285D01*
X116889286Y-52649285D02*
X117508333Y-52649285D01*
%TO.C,D2*%
X112591905Y-52992619D02*
X112591905Y-51992619D01*
X112591905Y-51992619D02*
X112830000Y-51992619D01*
X112830000Y-51992619D02*
X112972857Y-52040238D01*
X112972857Y-52040238D02*
X113068095Y-52135476D01*
X113068095Y-52135476D02*
X113115714Y-52230714D01*
X113115714Y-52230714D02*
X113163333Y-52421190D01*
X113163333Y-52421190D02*
X113163333Y-52564047D01*
X113163333Y-52564047D02*
X113115714Y-52754523D01*
X113115714Y-52754523D02*
X113068095Y-52849761D01*
X113068095Y-52849761D02*
X112972857Y-52945000D01*
X112972857Y-52945000D02*
X112830000Y-52992619D01*
X112830000Y-52992619D02*
X112591905Y-52992619D01*
X113544286Y-52087857D02*
X113591905Y-52040238D01*
X113591905Y-52040238D02*
X113687143Y-51992619D01*
X113687143Y-51992619D02*
X113925238Y-51992619D01*
X113925238Y-51992619D02*
X114020476Y-52040238D01*
X114020476Y-52040238D02*
X114068095Y-52087857D01*
X114068095Y-52087857D02*
X114115714Y-52183095D01*
X114115714Y-52183095D02*
X114115714Y-52278333D01*
X114115714Y-52278333D02*
X114068095Y-52421190D01*
X114068095Y-52421190D02*
X113496667Y-52992619D01*
X113496667Y-52992619D02*
X114115714Y-52992619D01*
%TO.C,C1*%
X130108333Y-55977380D02*
X130060714Y-56025000D01*
X130060714Y-56025000D02*
X129917857Y-56072619D01*
X129917857Y-56072619D02*
X129822619Y-56072619D01*
X129822619Y-56072619D02*
X129679762Y-56025000D01*
X129679762Y-56025000D02*
X129584524Y-55929761D01*
X129584524Y-55929761D02*
X129536905Y-55834523D01*
X129536905Y-55834523D02*
X129489286Y-55644047D01*
X129489286Y-55644047D02*
X129489286Y-55501190D01*
X129489286Y-55501190D02*
X129536905Y-55310714D01*
X129536905Y-55310714D02*
X129584524Y-55215476D01*
X129584524Y-55215476D02*
X129679762Y-55120238D01*
X129679762Y-55120238D02*
X129822619Y-55072619D01*
X129822619Y-55072619D02*
X129917857Y-55072619D01*
X129917857Y-55072619D02*
X130060714Y-55120238D01*
X130060714Y-55120238D02*
X130108333Y-55167857D01*
X131060714Y-56072619D02*
X130489286Y-56072619D01*
X130775000Y-56072619D02*
X130775000Y-55072619D01*
X130775000Y-55072619D02*
X130679762Y-55215476D01*
X130679762Y-55215476D02*
X130584524Y-55310714D01*
X130584524Y-55310714D02*
X130489286Y-55358333D01*
%TO.C,D1*%
X112621905Y-50152619D02*
X112621905Y-49152619D01*
X112621905Y-49152619D02*
X112860000Y-49152619D01*
X112860000Y-49152619D02*
X113002857Y-49200238D01*
X113002857Y-49200238D02*
X113098095Y-49295476D01*
X113098095Y-49295476D02*
X113145714Y-49390714D01*
X113145714Y-49390714D02*
X113193333Y-49581190D01*
X113193333Y-49581190D02*
X113193333Y-49724047D01*
X113193333Y-49724047D02*
X113145714Y-49914523D01*
X113145714Y-49914523D02*
X113098095Y-50009761D01*
X113098095Y-50009761D02*
X113002857Y-50105000D01*
X113002857Y-50105000D02*
X112860000Y-50152619D01*
X112860000Y-50152619D02*
X112621905Y-50152619D01*
X114145714Y-50152619D02*
X113574286Y-50152619D01*
X113860000Y-50152619D02*
X113860000Y-49152619D01*
X113860000Y-49152619D02*
X113764762Y-49295476D01*
X113764762Y-49295476D02*
X113669524Y-49390714D01*
X113669524Y-49390714D02*
X113574286Y-49438333D01*
%TO.C,U1*%
X131588095Y-47812619D02*
X131588095Y-48622142D01*
X131588095Y-48622142D02*
X131635714Y-48717380D01*
X131635714Y-48717380D02*
X131683333Y-48765000D01*
X131683333Y-48765000D02*
X131778571Y-48812619D01*
X131778571Y-48812619D02*
X131969047Y-48812619D01*
X131969047Y-48812619D02*
X132064285Y-48765000D01*
X132064285Y-48765000D02*
X132111904Y-48717380D01*
X132111904Y-48717380D02*
X132159523Y-48622142D01*
X132159523Y-48622142D02*
X132159523Y-47812619D01*
X133159523Y-48812619D02*
X132588095Y-48812619D01*
X132873809Y-48812619D02*
X132873809Y-47812619D01*
X132873809Y-47812619D02*
X132778571Y-47955476D01*
X132778571Y-47955476D02*
X132683333Y-48050714D01*
X132683333Y-48050714D02*
X132588095Y-48098333D01*
%TO.C,U2*%
X131568095Y-55842619D02*
X131568095Y-56652142D01*
X131568095Y-56652142D02*
X131615714Y-56747380D01*
X131615714Y-56747380D02*
X131663333Y-56795000D01*
X131663333Y-56795000D02*
X131758571Y-56842619D01*
X131758571Y-56842619D02*
X131949047Y-56842619D01*
X131949047Y-56842619D02*
X132044285Y-56795000D01*
X132044285Y-56795000D02*
X132091904Y-56747380D01*
X132091904Y-56747380D02*
X132139523Y-56652142D01*
X132139523Y-56652142D02*
X132139523Y-55842619D01*
X132568095Y-55937857D02*
X132615714Y-55890238D01*
X132615714Y-55890238D02*
X132710952Y-55842619D01*
X132710952Y-55842619D02*
X132949047Y-55842619D01*
X132949047Y-55842619D02*
X133044285Y-55890238D01*
X133044285Y-55890238D02*
X133091904Y-55937857D01*
X133091904Y-55937857D02*
X133139523Y-56033095D01*
X133139523Y-56033095D02*
X133139523Y-56128333D01*
X133139523Y-56128333D02*
X133091904Y-56271190D01*
X133091904Y-56271190D02*
X132520476Y-56842619D01*
X132520476Y-56842619D02*
X133139523Y-56842619D01*
%TO.C,R2*%
X132833333Y-65662619D02*
X132500000Y-65186428D01*
X132261905Y-65662619D02*
X132261905Y-64662619D01*
X132261905Y-64662619D02*
X132642857Y-64662619D01*
X132642857Y-64662619D02*
X132738095Y-64710238D01*
X132738095Y-64710238D02*
X132785714Y-64757857D01*
X132785714Y-64757857D02*
X132833333Y-64853095D01*
X132833333Y-64853095D02*
X132833333Y-64995952D01*
X132833333Y-64995952D02*
X132785714Y-65091190D01*
X132785714Y-65091190D02*
X132738095Y-65138809D01*
X132738095Y-65138809D02*
X132642857Y-65186428D01*
X132642857Y-65186428D02*
X132261905Y-65186428D01*
X133214286Y-64757857D02*
X133261905Y-64710238D01*
X133261905Y-64710238D02*
X133357143Y-64662619D01*
X133357143Y-64662619D02*
X133595238Y-64662619D01*
X133595238Y-64662619D02*
X133690476Y-64710238D01*
X133690476Y-64710238D02*
X133738095Y-64757857D01*
X133738095Y-64757857D02*
X133785714Y-64853095D01*
X133785714Y-64853095D02*
X133785714Y-64948333D01*
X133785714Y-64948333D02*
X133738095Y-65091190D01*
X133738095Y-65091190D02*
X133166667Y-65662619D01*
X133166667Y-65662619D02*
X133785714Y-65662619D01*
D13*
%TO.C,v0.0.1*%
X111957143Y-65195952D02*
X112195238Y-65862619D01*
X112195238Y-65862619D02*
X112433333Y-65195952D01*
X113004762Y-64862619D02*
X113100000Y-64862619D01*
X113100000Y-64862619D02*
X113195238Y-64910238D01*
X113195238Y-64910238D02*
X113242857Y-64957857D01*
X113242857Y-64957857D02*
X113290476Y-65053095D01*
X113290476Y-65053095D02*
X113338095Y-65243571D01*
X113338095Y-65243571D02*
X113338095Y-65481666D01*
X113338095Y-65481666D02*
X113290476Y-65672142D01*
X113290476Y-65672142D02*
X113242857Y-65767380D01*
X113242857Y-65767380D02*
X113195238Y-65815000D01*
X113195238Y-65815000D02*
X113100000Y-65862619D01*
X113100000Y-65862619D02*
X113004762Y-65862619D01*
X113004762Y-65862619D02*
X112909524Y-65815000D01*
X112909524Y-65815000D02*
X112861905Y-65767380D01*
X112861905Y-65767380D02*
X112814286Y-65672142D01*
X112814286Y-65672142D02*
X112766667Y-65481666D01*
X112766667Y-65481666D02*
X112766667Y-65243571D01*
X112766667Y-65243571D02*
X112814286Y-65053095D01*
X112814286Y-65053095D02*
X112861905Y-64957857D01*
X112861905Y-64957857D02*
X112909524Y-64910238D01*
X112909524Y-64910238D02*
X113004762Y-64862619D01*
X113766667Y-65767380D02*
X113814286Y-65815000D01*
X113814286Y-65815000D02*
X113766667Y-65862619D01*
X113766667Y-65862619D02*
X113719048Y-65815000D01*
X113719048Y-65815000D02*
X113766667Y-65767380D01*
X113766667Y-65767380D02*
X113766667Y-65862619D01*
X114433333Y-64862619D02*
X114528571Y-64862619D01*
X114528571Y-64862619D02*
X114623809Y-64910238D01*
X114623809Y-64910238D02*
X114671428Y-64957857D01*
X114671428Y-64957857D02*
X114719047Y-65053095D01*
X114719047Y-65053095D02*
X114766666Y-65243571D01*
X114766666Y-65243571D02*
X114766666Y-65481666D01*
X114766666Y-65481666D02*
X114719047Y-65672142D01*
X114719047Y-65672142D02*
X114671428Y-65767380D01*
X114671428Y-65767380D02*
X114623809Y-65815000D01*
X114623809Y-65815000D02*
X114528571Y-65862619D01*
X114528571Y-65862619D02*
X114433333Y-65862619D01*
X114433333Y-65862619D02*
X114338095Y-65815000D01*
X114338095Y-65815000D02*
X114290476Y-65767380D01*
X114290476Y-65767380D02*
X114242857Y-65672142D01*
X114242857Y-65672142D02*
X114195238Y-65481666D01*
X114195238Y-65481666D02*
X114195238Y-65243571D01*
X114195238Y-65243571D02*
X114242857Y-65053095D01*
X114242857Y-65053095D02*
X114290476Y-64957857D01*
X114290476Y-64957857D02*
X114338095Y-64910238D01*
X114338095Y-64910238D02*
X114433333Y-64862619D01*
X115195238Y-65767380D02*
X115242857Y-65815000D01*
X115242857Y-65815000D02*
X115195238Y-65862619D01*
X115195238Y-65862619D02*
X115147619Y-65815000D01*
X115147619Y-65815000D02*
X115195238Y-65767380D01*
X115195238Y-65767380D02*
X115195238Y-65862619D01*
X116195237Y-65862619D02*
X115623809Y-65862619D01*
X115909523Y-65862619D02*
X115909523Y-64862619D01*
X115909523Y-64862619D02*
X115814285Y-65005476D01*
X115814285Y-65005476D02*
X115719047Y-65100714D01*
X115719047Y-65100714D02*
X115623809Y-65148333D01*
D10*
%TO.C,C3*%
X120287380Y-56816666D02*
X120335000Y-56864285D01*
X120335000Y-56864285D02*
X120382619Y-57007142D01*
X120382619Y-57007142D02*
X120382619Y-57102380D01*
X120382619Y-57102380D02*
X120335000Y-57245237D01*
X120335000Y-57245237D02*
X120239761Y-57340475D01*
X120239761Y-57340475D02*
X120144523Y-57388094D01*
X120144523Y-57388094D02*
X119954047Y-57435713D01*
X119954047Y-57435713D02*
X119811190Y-57435713D01*
X119811190Y-57435713D02*
X119620714Y-57388094D01*
X119620714Y-57388094D02*
X119525476Y-57340475D01*
X119525476Y-57340475D02*
X119430238Y-57245237D01*
X119430238Y-57245237D02*
X119382619Y-57102380D01*
X119382619Y-57102380D02*
X119382619Y-57007142D01*
X119382619Y-57007142D02*
X119430238Y-56864285D01*
X119430238Y-56864285D02*
X119477857Y-56816666D01*
X119382619Y-56483332D02*
X119382619Y-55864285D01*
X119382619Y-55864285D02*
X119763571Y-56197618D01*
X119763571Y-56197618D02*
X119763571Y-56054761D01*
X119763571Y-56054761D02*
X119811190Y-55959523D01*
X119811190Y-55959523D02*
X119858809Y-55911904D01*
X119858809Y-55911904D02*
X119954047Y-55864285D01*
X119954047Y-55864285D02*
X120192142Y-55864285D01*
X120192142Y-55864285D02*
X120287380Y-55911904D01*
X120287380Y-55911904D02*
X120335000Y-55959523D01*
X120335000Y-55959523D02*
X120382619Y-56054761D01*
X120382619Y-56054761D02*
X120382619Y-56340475D01*
X120382619Y-56340475D02*
X120335000Y-56435713D01*
X120335000Y-56435713D02*
X120287380Y-56483332D01*
%TO.C,D3*%
X112561905Y-55812619D02*
X112561905Y-54812619D01*
X112561905Y-54812619D02*
X112800000Y-54812619D01*
X112800000Y-54812619D02*
X112942857Y-54860238D01*
X112942857Y-54860238D02*
X113038095Y-54955476D01*
X113038095Y-54955476D02*
X113085714Y-55050714D01*
X113085714Y-55050714D02*
X113133333Y-55241190D01*
X113133333Y-55241190D02*
X113133333Y-55384047D01*
X113133333Y-55384047D02*
X113085714Y-55574523D01*
X113085714Y-55574523D02*
X113038095Y-55669761D01*
X113038095Y-55669761D02*
X112942857Y-55765000D01*
X112942857Y-55765000D02*
X112800000Y-55812619D01*
X112800000Y-55812619D02*
X112561905Y-55812619D01*
X113466667Y-54812619D02*
X114085714Y-54812619D01*
X114085714Y-54812619D02*
X113752381Y-55193571D01*
X113752381Y-55193571D02*
X113895238Y-55193571D01*
X113895238Y-55193571D02*
X113990476Y-55241190D01*
X113990476Y-55241190D02*
X114038095Y-55288809D01*
X114038095Y-55288809D02*
X114085714Y-55384047D01*
X114085714Y-55384047D02*
X114085714Y-55622142D01*
X114085714Y-55622142D02*
X114038095Y-55717380D01*
X114038095Y-55717380D02*
X113990476Y-55765000D01*
X113990476Y-55765000D02*
X113895238Y-55812619D01*
X113895238Y-55812619D02*
X113609524Y-55812619D01*
X113609524Y-55812619D02*
X113514286Y-55765000D01*
X113514286Y-55765000D02*
X113466667Y-55717380D01*
%TO.C,R3*%
X116588333Y-50112619D02*
X116255000Y-49636428D01*
X116016905Y-50112619D02*
X116016905Y-49112619D01*
X116016905Y-49112619D02*
X116397857Y-49112619D01*
X116397857Y-49112619D02*
X116493095Y-49160238D01*
X116493095Y-49160238D02*
X116540714Y-49207857D01*
X116540714Y-49207857D02*
X116588333Y-49303095D01*
X116588333Y-49303095D02*
X116588333Y-49445952D01*
X116588333Y-49445952D02*
X116540714Y-49541190D01*
X116540714Y-49541190D02*
X116493095Y-49588809D01*
X116493095Y-49588809D02*
X116397857Y-49636428D01*
X116397857Y-49636428D02*
X116016905Y-49636428D01*
X116921667Y-49112619D02*
X117540714Y-49112619D01*
X117540714Y-49112619D02*
X117207381Y-49493571D01*
X117207381Y-49493571D02*
X117350238Y-49493571D01*
X117350238Y-49493571D02*
X117445476Y-49541190D01*
X117445476Y-49541190D02*
X117493095Y-49588809D01*
X117493095Y-49588809D02*
X117540714Y-49684047D01*
X117540714Y-49684047D02*
X117540714Y-49922142D01*
X117540714Y-49922142D02*
X117493095Y-50017380D01*
X117493095Y-50017380D02*
X117445476Y-50065000D01*
X117445476Y-50065000D02*
X117350238Y-50112619D01*
X117350238Y-50112619D02*
X117064524Y-50112619D01*
X117064524Y-50112619D02*
X116969286Y-50065000D01*
X116969286Y-50065000D02*
X116921667Y-50017380D01*
%TO.C,C4*%
X121517380Y-56756666D02*
X121565000Y-56804285D01*
X121565000Y-56804285D02*
X121612619Y-56947142D01*
X121612619Y-56947142D02*
X121612619Y-57042380D01*
X121612619Y-57042380D02*
X121565000Y-57185237D01*
X121565000Y-57185237D02*
X121469761Y-57280475D01*
X121469761Y-57280475D02*
X121374523Y-57328094D01*
X121374523Y-57328094D02*
X121184047Y-57375713D01*
X121184047Y-57375713D02*
X121041190Y-57375713D01*
X121041190Y-57375713D02*
X120850714Y-57328094D01*
X120850714Y-57328094D02*
X120755476Y-57280475D01*
X120755476Y-57280475D02*
X120660238Y-57185237D01*
X120660238Y-57185237D02*
X120612619Y-57042380D01*
X120612619Y-57042380D02*
X120612619Y-56947142D01*
X120612619Y-56947142D02*
X120660238Y-56804285D01*
X120660238Y-56804285D02*
X120707857Y-56756666D01*
X120945952Y-55899523D02*
X121612619Y-55899523D01*
X120565000Y-56137618D02*
X121279285Y-56375713D01*
X121279285Y-56375713D02*
X121279285Y-55756666D01*
%TO.C,J2*%
X116882619Y-65503333D02*
X117596904Y-65503333D01*
X117596904Y-65503333D02*
X117739761Y-65550952D01*
X117739761Y-65550952D02*
X117835000Y-65646190D01*
X117835000Y-65646190D02*
X117882619Y-65789047D01*
X117882619Y-65789047D02*
X117882619Y-65884285D01*
X116977857Y-65074761D02*
X116930238Y-65027142D01*
X116930238Y-65027142D02*
X116882619Y-64931904D01*
X116882619Y-64931904D02*
X116882619Y-64693809D01*
X116882619Y-64693809D02*
X116930238Y-64598571D01*
X116930238Y-64598571D02*
X116977857Y-64550952D01*
X116977857Y-64550952D02*
X117073095Y-64503333D01*
X117073095Y-64503333D02*
X117168333Y-64503333D01*
X117168333Y-64503333D02*
X117311190Y-64550952D01*
X117311190Y-64550952D02*
X117882619Y-65122380D01*
X117882619Y-65122380D02*
X117882619Y-64503333D01*
%TO.C,R5*%
X116588333Y-55792619D02*
X116255000Y-55316428D01*
X116016905Y-55792619D02*
X116016905Y-54792619D01*
X116016905Y-54792619D02*
X116397857Y-54792619D01*
X116397857Y-54792619D02*
X116493095Y-54840238D01*
X116493095Y-54840238D02*
X116540714Y-54887857D01*
X116540714Y-54887857D02*
X116588333Y-54983095D01*
X116588333Y-54983095D02*
X116588333Y-55125952D01*
X116588333Y-55125952D02*
X116540714Y-55221190D01*
X116540714Y-55221190D02*
X116493095Y-55268809D01*
X116493095Y-55268809D02*
X116397857Y-55316428D01*
X116397857Y-55316428D02*
X116016905Y-55316428D01*
X117493095Y-54792619D02*
X117016905Y-54792619D01*
X117016905Y-54792619D02*
X116969286Y-55268809D01*
X116969286Y-55268809D02*
X117016905Y-55221190D01*
X117016905Y-55221190D02*
X117112143Y-55173571D01*
X117112143Y-55173571D02*
X117350238Y-55173571D01*
X117350238Y-55173571D02*
X117445476Y-55221190D01*
X117445476Y-55221190D02*
X117493095Y-55268809D01*
X117493095Y-55268809D02*
X117540714Y-55364047D01*
X117540714Y-55364047D02*
X117540714Y-55602142D01*
X117540714Y-55602142D02*
X117493095Y-55697380D01*
X117493095Y-55697380D02*
X117445476Y-55745000D01*
X117445476Y-55745000D02*
X117350238Y-55792619D01*
X117350238Y-55792619D02*
X117112143Y-55792619D01*
X117112143Y-55792619D02*
X117016905Y-55745000D01*
X117016905Y-55745000D02*
X116969286Y-55697380D01*
%TO.C,R1*%
X139688333Y-56052619D02*
X139355000Y-55576428D01*
X139116905Y-56052619D02*
X139116905Y-55052619D01*
X139116905Y-55052619D02*
X139497857Y-55052619D01*
X139497857Y-55052619D02*
X139593095Y-55100238D01*
X139593095Y-55100238D02*
X139640714Y-55147857D01*
X139640714Y-55147857D02*
X139688333Y-55243095D01*
X139688333Y-55243095D02*
X139688333Y-55385952D01*
X139688333Y-55385952D02*
X139640714Y-55481190D01*
X139640714Y-55481190D02*
X139593095Y-55528809D01*
X139593095Y-55528809D02*
X139497857Y-55576428D01*
X139497857Y-55576428D02*
X139116905Y-55576428D01*
X140640714Y-56052619D02*
X140069286Y-56052619D01*
X140355000Y-56052619D02*
X140355000Y-55052619D01*
X140355000Y-55052619D02*
X140259762Y-55195476D01*
X140259762Y-55195476D02*
X140164524Y-55290714D01*
X140164524Y-55290714D02*
X140069286Y-55338333D01*
%TO.C,C2*%
X131007380Y-61366666D02*
X131055000Y-61414285D01*
X131055000Y-61414285D02*
X131102619Y-61557142D01*
X131102619Y-61557142D02*
X131102619Y-61652380D01*
X131102619Y-61652380D02*
X131055000Y-61795237D01*
X131055000Y-61795237D02*
X130959761Y-61890475D01*
X130959761Y-61890475D02*
X130864523Y-61938094D01*
X130864523Y-61938094D02*
X130674047Y-61985713D01*
X130674047Y-61985713D02*
X130531190Y-61985713D01*
X130531190Y-61985713D02*
X130340714Y-61938094D01*
X130340714Y-61938094D02*
X130245476Y-61890475D01*
X130245476Y-61890475D02*
X130150238Y-61795237D01*
X130150238Y-61795237D02*
X130102619Y-61652380D01*
X130102619Y-61652380D02*
X130102619Y-61557142D01*
X130102619Y-61557142D02*
X130150238Y-61414285D01*
X130150238Y-61414285D02*
X130197857Y-61366666D01*
X130197857Y-60985713D02*
X130150238Y-60938094D01*
X130150238Y-60938094D02*
X130102619Y-60842856D01*
X130102619Y-60842856D02*
X130102619Y-60604761D01*
X130102619Y-60604761D02*
X130150238Y-60509523D01*
X130150238Y-60509523D02*
X130197857Y-60461904D01*
X130197857Y-60461904D02*
X130293095Y-60414285D01*
X130293095Y-60414285D02*
X130388333Y-60414285D01*
X130388333Y-60414285D02*
X130531190Y-60461904D01*
X130531190Y-60461904D02*
X131102619Y-61033332D01*
X131102619Y-61033332D02*
X131102619Y-60414285D01*
%TO.C,G\u002A\u002A\u002A*%
G36*
X127937516Y-51567805D02*
G01*
X127958638Y-51568106D01*
X128038528Y-51569474D01*
X128037348Y-52033417D01*
X128036168Y-52497360D01*
X127951671Y-52498622D01*
X127867174Y-52499884D01*
X127867174Y-52034963D01*
X127867196Y-51956162D01*
X127867264Y-51886169D01*
X127867385Y-51824534D01*
X127867564Y-51770805D01*
X127867807Y-51724531D01*
X127868119Y-51685260D01*
X127868506Y-51652541D01*
X127868973Y-51625924D01*
X127869527Y-51604956D01*
X127870172Y-51589188D01*
X127870914Y-51578166D01*
X127871759Y-51571441D01*
X127872713Y-51568560D01*
X127872962Y-51568390D01*
X127879312Y-51567923D01*
X127893281Y-51567667D01*
X127913228Y-51567626D01*
X127937516Y-51567805D01*
G37*
G36*
X128687152Y-51036450D02*
G01*
X128716124Y-51047049D01*
X128741697Y-51065092D01*
X128744084Y-51067393D01*
X128762204Y-51087487D01*
X128773722Y-51106510D01*
X128780154Y-51127845D01*
X128782983Y-51154287D01*
X128782643Y-51184639D01*
X128777407Y-51209535D01*
X128766316Y-51231901D01*
X128751043Y-51251711D01*
X128727240Y-51272112D01*
X128698805Y-51285459D01*
X128667407Y-51291484D01*
X128634716Y-51289919D01*
X128602400Y-51280496D01*
X128594530Y-51276859D01*
X128567474Y-51258547D01*
X128546898Y-51234730D01*
X128533145Y-51206837D01*
X128526561Y-51176297D01*
X128527488Y-51144539D01*
X128536272Y-51112994D01*
X128549260Y-51088761D01*
X128570391Y-51064864D01*
X128596401Y-51047502D01*
X128625635Y-51036858D01*
X128656437Y-51033114D01*
X128687152Y-51036450D01*
G37*
G36*
X128638685Y-52697005D02*
G01*
X128652489Y-52699324D01*
X128664848Y-52704382D01*
X128675344Y-52710461D01*
X128699134Y-52729985D01*
X128715854Y-52753748D01*
X128725557Y-52780244D01*
X128728294Y-52807972D01*
X128724117Y-52835426D01*
X128713077Y-52861103D01*
X128695226Y-52883498D01*
X128670615Y-52901109D01*
X128668781Y-52902053D01*
X128651393Y-52908504D01*
X128630951Y-52912830D01*
X128611666Y-52914332D01*
X128601024Y-52913310D01*
X128569708Y-52902440D01*
X128544757Y-52885111D01*
X128525383Y-52860746D01*
X128522486Y-52855677D01*
X128515731Y-52842216D01*
X128512121Y-52830826D01*
X128510987Y-52817872D01*
X128511663Y-52799716D01*
X128511803Y-52797498D01*
X128516624Y-52767492D01*
X128527525Y-52743424D01*
X128545631Y-52723410D01*
X128563765Y-52710448D01*
X128577548Y-52702741D01*
X128589909Y-52698493D01*
X128604735Y-52696729D01*
X128619544Y-52696449D01*
X128638685Y-52697005D01*
G37*
G36*
X127093111Y-51734686D02*
G01*
X127131710Y-51748526D01*
X127167639Y-51769711D01*
X127185545Y-51784212D01*
X127206448Y-51807744D01*
X127224933Y-51837237D01*
X127239340Y-51869422D01*
X127248006Y-51901030D01*
X127249180Y-51909355D01*
X127249269Y-51952106D01*
X127240809Y-51993545D01*
X127224469Y-52032359D01*
X127200917Y-52067236D01*
X127170821Y-52096863D01*
X127144625Y-52114696D01*
X127115181Y-52127791D01*
X127081897Y-52136529D01*
X127048368Y-52140226D01*
X127019890Y-52138501D01*
X126991050Y-52132572D01*
X126967889Y-52125100D01*
X126946831Y-52114744D01*
X126932349Y-52105678D01*
X126899322Y-52078711D01*
X126873865Y-52047739D01*
X126855759Y-52013762D01*
X126844783Y-51977780D01*
X126840717Y-51940796D01*
X126843342Y-51903807D01*
X126852436Y-51867817D01*
X126867780Y-51833824D01*
X126889154Y-51802829D01*
X126916339Y-51775834D01*
X126949113Y-51753838D01*
X126987257Y-51737841D01*
X127014716Y-51731155D01*
X127053545Y-51728719D01*
X127093111Y-51734686D01*
G37*
G36*
X127048374Y-53275156D02*
G01*
X127087482Y-53283656D01*
X127122761Y-53299672D01*
X127155639Y-53323760D01*
X127171227Y-53338599D01*
X127198113Y-53372356D01*
X127217223Y-53409814D01*
X127228573Y-53449713D01*
X127232177Y-53490794D01*
X127228051Y-53531798D01*
X127216211Y-53571465D01*
X127196672Y-53608537D01*
X127169449Y-53641754D01*
X127167500Y-53643666D01*
X127131654Y-53672392D01*
X127092432Y-53692528D01*
X127050141Y-53703982D01*
X127005087Y-53706660D01*
X126971712Y-53703203D01*
X126935693Y-53692737D01*
X126901036Y-53674400D01*
X126869189Y-53649578D01*
X126841597Y-53619660D01*
X126819705Y-53586033D01*
X126804961Y-53550084D01*
X126802559Y-53540887D01*
X126799022Y-53516410D01*
X126798029Y-53487693D01*
X126799523Y-53458996D01*
X126803451Y-53434579D01*
X126803955Y-53432614D01*
X126819662Y-53391240D01*
X126843163Y-53354600D01*
X126873981Y-53323263D01*
X126911640Y-53297799D01*
X126920781Y-53293049D01*
X126938105Y-53284826D01*
X126952040Y-53279515D01*
X126965797Y-53276367D01*
X126982585Y-53274631D01*
X127004007Y-53273617D01*
X127048374Y-53275156D01*
G37*
G36*
X128416442Y-49616406D02*
G01*
X128480680Y-49631677D01*
X128541867Y-49654968D01*
X128599317Y-49685885D01*
X128652346Y-49724033D01*
X128700267Y-49769018D01*
X128742396Y-49820446D01*
X128778045Y-49877923D01*
X128791323Y-49904640D01*
X128812317Y-49960309D01*
X128826403Y-50020381D01*
X128833478Y-50082983D01*
X128833443Y-50146239D01*
X128826194Y-50208275D01*
X128811631Y-50267217D01*
X128811035Y-50269056D01*
X128785735Y-50331846D01*
X128752530Y-50390204D01*
X128711942Y-50443529D01*
X128664497Y-50491221D01*
X128610718Y-50532682D01*
X128551128Y-50567311D01*
X128550095Y-50567824D01*
X128496556Y-50589694D01*
X128437932Y-50605247D01*
X128376219Y-50614131D01*
X128313413Y-50615996D01*
X128285065Y-50614430D01*
X128219336Y-50604457D01*
X128156275Y-50585992D01*
X128096600Y-50559594D01*
X128041028Y-50525824D01*
X127990278Y-50485242D01*
X127945066Y-50438408D01*
X127906112Y-50385882D01*
X127874132Y-50328223D01*
X127853762Y-50277932D01*
X127837052Y-50215799D01*
X127828458Y-50151912D01*
X127827779Y-50087427D01*
X127834812Y-50023498D01*
X127849356Y-49961279D01*
X127871209Y-49901927D01*
X127900167Y-49846594D01*
X127936030Y-49796437D01*
X127938531Y-49793459D01*
X127987286Y-49742702D01*
X128040677Y-49699769D01*
X128098302Y-49664877D01*
X128159755Y-49638239D01*
X128224631Y-49620069D01*
X128281556Y-49611502D01*
X128349839Y-49609550D01*
X128416442Y-49616406D01*
G37*
G36*
X130417396Y-51567543D02*
G01*
X130468749Y-51567618D01*
X130523431Y-51567735D01*
X130580700Y-51567896D01*
X130597273Y-51567949D01*
X130963773Y-51569161D01*
X130964376Y-51640028D01*
X130964398Y-51665232D01*
X130964057Y-51687545D01*
X130963408Y-51705144D01*
X130962507Y-51716203D01*
X130961990Y-51718682D01*
X130960470Y-51720865D01*
X130957130Y-51722601D01*
X130951009Y-51723941D01*
X130941148Y-51724934D01*
X130926587Y-51725631D01*
X130906367Y-51726082D01*
X130879528Y-51726339D01*
X130845110Y-51726451D01*
X130813680Y-51726471D01*
X130668358Y-51726471D01*
X130667174Y-52111916D01*
X130665990Y-52497360D01*
X130582365Y-52498619D01*
X130555422Y-52498853D01*
X130531731Y-52498735D01*
X130512824Y-52498297D01*
X130500235Y-52497574D01*
X130495554Y-52496690D01*
X130495065Y-52491677D01*
X130494600Y-52478092D01*
X130494163Y-52456625D01*
X130493760Y-52427965D01*
X130493397Y-52392798D01*
X130493079Y-52351815D01*
X130492813Y-52305704D01*
X130492603Y-52255154D01*
X130492457Y-52200852D01*
X130492378Y-52143489D01*
X130492366Y-52109986D01*
X130492366Y-51726471D01*
X130344207Y-51726471D01*
X130196048Y-51726471D01*
X130196048Y-51648041D01*
X130196048Y-51569611D01*
X130213410Y-51568174D01*
X130220703Y-51567963D01*
X130236513Y-51567792D01*
X130260101Y-51567660D01*
X130290725Y-51567569D01*
X130327643Y-51567519D01*
X130370114Y-51567510D01*
X130417396Y-51567543D01*
G37*
G36*
X129110475Y-50353558D02*
G01*
X129121574Y-50359864D01*
X129137975Y-50370362D01*
X129158635Y-50384360D01*
X129182510Y-50401163D01*
X129208557Y-50420078D01*
X129214495Y-50424468D01*
X129314712Y-50504380D01*
X129410260Y-50591757D01*
X129500327Y-50685690D01*
X129584102Y-50785268D01*
X129660773Y-50889581D01*
X129729529Y-50997718D01*
X129737343Y-51011141D01*
X129756569Y-51045902D01*
X129777369Y-51085951D01*
X129798782Y-51129238D01*
X129819848Y-51173711D01*
X129839605Y-51217322D01*
X129857092Y-51258019D01*
X129871348Y-51293751D01*
X129876788Y-51308616D01*
X129885341Y-51332924D01*
X129849708Y-51332249D01*
X129829206Y-51331559D01*
X129803549Y-51330262D01*
X129776806Y-51328578D01*
X129763146Y-51327569D01*
X129738570Y-51325601D01*
X129713863Y-51323563D01*
X129692621Y-51321754D01*
X129682973Y-51320897D01*
X129653729Y-51318231D01*
X129641534Y-51289695D01*
X129591621Y-51184297D01*
X129533249Y-51081417D01*
X129467053Y-50981830D01*
X129393668Y-50886311D01*
X129313730Y-50795637D01*
X129227873Y-50710581D01*
X129136733Y-50631920D01*
X129048069Y-50565380D01*
X129029597Y-50552255D01*
X129014096Y-50540834D01*
X129003049Y-50532242D01*
X128997942Y-50527602D01*
X128997783Y-50527327D01*
X128999548Y-50522061D01*
X129005422Y-50510821D01*
X129014433Y-50495375D01*
X129023248Y-50481170D01*
X129038339Y-50457435D01*
X129055474Y-50430467D01*
X129071736Y-50404857D01*
X129077169Y-50396297D01*
X129088258Y-50378894D01*
X129097437Y-50364624D01*
X129103630Y-50355154D01*
X129105722Y-50352140D01*
X129110475Y-50353558D01*
G37*
G36*
X127196910Y-52226113D02*
G01*
X127203254Y-52238052D01*
X127211210Y-52256546D01*
X127218727Y-52276279D01*
X127254250Y-52360801D01*
X127297330Y-52440275D01*
X127347525Y-52514318D01*
X127404397Y-52582550D01*
X127467504Y-52644590D01*
X127536409Y-52700056D01*
X127610669Y-52748569D01*
X127689846Y-52789746D01*
X127773499Y-52823206D01*
X127861189Y-52848569D01*
X127885694Y-52854019D01*
X127972160Y-52867357D01*
X128059988Y-52871785D01*
X128148265Y-52867371D01*
X128236078Y-52854181D01*
X128322514Y-52832283D01*
X128362245Y-52819058D01*
X128379880Y-52813218D01*
X128394147Y-52809416D01*
X128402904Y-52808181D01*
X128404493Y-52808621D01*
X128407712Y-52814474D01*
X128413079Y-52826421D01*
X128419446Y-52841907D01*
X128419598Y-52842293D01*
X128425894Y-52858007D01*
X128434680Y-52879615D01*
X128444873Y-52904467D01*
X128455390Y-52929916D01*
X128457217Y-52934315D01*
X128466341Y-52956350D01*
X128474042Y-52975116D01*
X128479693Y-52989066D01*
X128482663Y-52996657D01*
X128482960Y-52997573D01*
X128478744Y-53000556D01*
X128467075Y-53005534D01*
X128449423Y-53012022D01*
X128427258Y-53019540D01*
X128402051Y-53027605D01*
X128375270Y-53035734D01*
X128348387Y-53043444D01*
X128322870Y-53050254D01*
X128321015Y-53050725D01*
X128284358Y-53058680D01*
X128241702Y-53065792D01*
X128195306Y-53071854D01*
X128147431Y-53076660D01*
X128100338Y-53080003D01*
X128056288Y-53081678D01*
X128017540Y-53081478D01*
X127996813Y-53080292D01*
X127910411Y-53070656D01*
X127830556Y-53056817D01*
X127755332Y-53038325D01*
X127682823Y-53014732D01*
X127632899Y-52995044D01*
X127541884Y-52951694D01*
X127455932Y-52900795D01*
X127375436Y-52842767D01*
X127300785Y-52778027D01*
X127232370Y-52706993D01*
X127170581Y-52630085D01*
X127115809Y-52547720D01*
X127068446Y-52460317D01*
X127028880Y-52368293D01*
X127017114Y-52335559D01*
X127010553Y-52315655D01*
X127005331Y-52298461D01*
X127002100Y-52286202D01*
X127001371Y-52281737D01*
X127003143Y-52278528D01*
X127009099Y-52274815D01*
X127020199Y-52270248D01*
X127037403Y-52264477D01*
X127061668Y-52257149D01*
X127093938Y-52247922D01*
X127122045Y-52240095D01*
X127147325Y-52233209D01*
X127168350Y-52227641D01*
X127183694Y-52223766D01*
X127191930Y-52221961D01*
X127192727Y-52221877D01*
X127196910Y-52226113D01*
G37*
G36*
X128159661Y-50878639D02*
G01*
X128212887Y-50883752D01*
X128264297Y-50891744D01*
X128317520Y-50903134D01*
X128351768Y-50911799D01*
X128383121Y-50920511D01*
X128412802Y-50929506D01*
X128439551Y-50938332D01*
X128462106Y-50946535D01*
X128479207Y-50953661D01*
X128489592Y-50959258D01*
X128492220Y-50962271D01*
X128490504Y-50967384D01*
X128485818Y-50979343D01*
X128478857Y-50996490D01*
X128470315Y-51017167D01*
X128460887Y-51039715D01*
X128451266Y-51062476D01*
X128442147Y-51083793D01*
X128434225Y-51102006D01*
X128428194Y-51115459D01*
X128427039Y-51117934D01*
X128421613Y-51130500D01*
X128418462Y-51139903D01*
X128418141Y-51141968D01*
X128417091Y-51146458D01*
X128413152Y-51148598D01*
X128405138Y-51148206D01*
X128391861Y-51145102D01*
X128372135Y-51139102D01*
X128348579Y-51131310D01*
X128279010Y-51110263D01*
X128213150Y-51095573D01*
X128148378Y-51086840D01*
X128082073Y-51083664D01*
X128040798Y-51084246D01*
X127982440Y-51087498D01*
X127930054Y-51093214D01*
X127880574Y-51101840D01*
X127830935Y-51113824D01*
X127823190Y-51115965D01*
X127736091Y-51145089D01*
X127653511Y-51182132D01*
X127575848Y-51226762D01*
X127503504Y-51278647D01*
X127436877Y-51337455D01*
X127376367Y-51402853D01*
X127322374Y-51474509D01*
X127275297Y-51552090D01*
X127257657Y-51586414D01*
X127247781Y-51606145D01*
X127239173Y-51622389D01*
X127232702Y-51633572D01*
X127229236Y-51638122D01*
X127229085Y-51638151D01*
X127224056Y-51636353D01*
X127211763Y-51631518D01*
X127193493Y-51624166D01*
X127170532Y-51614816D01*
X127144166Y-51603987D01*
X127133325Y-51599511D01*
X127102306Y-51586568D01*
X127078933Y-51576486D01*
X127062226Y-51568759D01*
X127051203Y-51562879D01*
X127044885Y-51558340D01*
X127042291Y-51554637D01*
X127042143Y-51552404D01*
X127044990Y-51543989D01*
X127051487Y-51529117D01*
X127060805Y-51509436D01*
X127072116Y-51486593D01*
X127084590Y-51462238D01*
X127097399Y-51438018D01*
X127109713Y-51415580D01*
X127119596Y-51398427D01*
X127159178Y-51338264D01*
X127206054Y-51277872D01*
X127258627Y-51218851D01*
X127315298Y-51162805D01*
X127374468Y-51111333D01*
X127434539Y-51066036D01*
X127481823Y-51035529D01*
X127568363Y-50988211D01*
X127654419Y-50949571D01*
X127741114Y-50919319D01*
X127829569Y-50897165D01*
X127920909Y-50882821D01*
X128016253Y-50875997D01*
X128100988Y-50875884D01*
X128159661Y-50878639D01*
G37*
G36*
X129648711Y-52765281D02*
G01*
X129677500Y-52767724D01*
X129681325Y-52768042D01*
X129708115Y-52770210D01*
X129736594Y-52772447D01*
X129762612Y-52774429D01*
X129775878Y-52775402D01*
X129796517Y-52777274D01*
X129809225Y-52779510D01*
X129815331Y-52782421D01*
X129816391Y-52784918D01*
X129814179Y-52792613D01*
X129807957Y-52807105D01*
X129798346Y-52827173D01*
X129785969Y-52851596D01*
X129771445Y-52879154D01*
X129755395Y-52908623D01*
X129738442Y-52938785D01*
X129735613Y-52943722D01*
X129665632Y-53056317D01*
X129588209Y-53163651D01*
X129503739Y-53265308D01*
X129412617Y-53360870D01*
X129315238Y-53449921D01*
X129211998Y-53532041D01*
X129114951Y-53599321D01*
X129000620Y-53668008D01*
X128882753Y-53728184D01*
X128761259Y-53779883D01*
X128636047Y-53823136D01*
X128507025Y-53857977D01*
X128374103Y-53884438D01*
X128279317Y-53897916D01*
X128231953Y-53902564D01*
X128178462Y-53906073D01*
X128121450Y-53908392D01*
X128063519Y-53909468D01*
X128007273Y-53909249D01*
X127955316Y-53907684D01*
X127915789Y-53905199D01*
X127787492Y-53890836D01*
X127664038Y-53869321D01*
X127544013Y-53840325D01*
X127426003Y-53803520D01*
X127342533Y-53772418D01*
X127310314Y-53759498D01*
X127285968Y-53749475D01*
X127268692Y-53742000D01*
X127257686Y-53736728D01*
X127252169Y-53733329D01*
X127253492Y-53728920D01*
X127258139Y-53717581D01*
X127265486Y-53700757D01*
X127274907Y-53679894D01*
X127281469Y-53665664D01*
X127293175Y-53640389D01*
X127304526Y-53615742D01*
X127314479Y-53594000D01*
X127321988Y-53577439D01*
X127324121Y-53572670D01*
X127331105Y-53558812D01*
X127337548Y-53549183D01*
X127341594Y-53546048D01*
X127347939Y-53547754D01*
X127360823Y-53552379D01*
X127378277Y-53559188D01*
X127395391Y-53566204D01*
X127506590Y-53608056D01*
X127622775Y-53642717D01*
X127742753Y-53669892D01*
X127865325Y-53689282D01*
X127911605Y-53694475D01*
X127937919Y-53696332D01*
X127971486Y-53697525D01*
X128010452Y-53698088D01*
X128052966Y-53698057D01*
X128097175Y-53697467D01*
X128141227Y-53696351D01*
X128183269Y-53694745D01*
X128221448Y-53692685D01*
X128253913Y-53690203D01*
X128276927Y-53687609D01*
X128381762Y-53670227D01*
X128480872Y-53648275D01*
X128576784Y-53621013D01*
X128672026Y-53587699D01*
X128769124Y-53547592D01*
X128796645Y-53535201D01*
X128901983Y-53481965D01*
X129003886Y-53420460D01*
X129101784Y-53351225D01*
X129195105Y-53274796D01*
X129283281Y-53191712D01*
X129365739Y-53102510D01*
X129441909Y-53007728D01*
X129511221Y-52907903D01*
X129572976Y-52803807D01*
X129581013Y-52788813D01*
X129587432Y-52777822D01*
X129593758Y-52770332D01*
X129601521Y-52765837D01*
X129612249Y-52763833D01*
X129627470Y-52763816D01*
X129648711Y-52765281D01*
G37*
G36*
X129283790Y-51572084D02*
G01*
X129315736Y-51573118D01*
X129342424Y-51575254D01*
X129365851Y-51578827D01*
X129388012Y-51584174D01*
X129410903Y-51591630D01*
X129436522Y-51601532D01*
X129447276Y-51605960D01*
X129500942Y-51633165D01*
X129549561Y-51667588D01*
X129592806Y-51708483D01*
X129630355Y-51755103D01*
X129661880Y-51806702D01*
X129687058Y-51862532D01*
X129705564Y-51921847D01*
X129717072Y-51983899D01*
X129721257Y-52047944D01*
X129717794Y-52113232D01*
X129706359Y-52179019D01*
X129702842Y-52193101D01*
X129681464Y-52258185D01*
X129653434Y-52316909D01*
X129619000Y-52369089D01*
X129578411Y-52414543D01*
X129531913Y-52453086D01*
X129479754Y-52484534D01*
X129422182Y-52508705D01*
X129359446Y-52525414D01*
X129291792Y-52534478D01*
X129239960Y-52536165D01*
X129214059Y-52535424D01*
X129186784Y-52533740D01*
X129162341Y-52531406D01*
X129151990Y-52530009D01*
X129094736Y-52518158D01*
X129043310Y-52501070D01*
X128995367Y-52477864D01*
X128966792Y-52460301D01*
X128917054Y-52421964D01*
X128874216Y-52377511D01*
X128838246Y-52326898D01*
X128809116Y-52270079D01*
X128786797Y-52207008D01*
X128776499Y-52165373D01*
X128772327Y-52138215D01*
X128769568Y-52104814D01*
X128768255Y-52068086D01*
X128768335Y-52050569D01*
X128943739Y-52050569D01*
X128944332Y-52087482D01*
X128946334Y-52117636D01*
X128950248Y-52143489D01*
X128956580Y-52167497D01*
X128965832Y-52192117D01*
X128978391Y-52219562D01*
X129004180Y-52262764D01*
X129036406Y-52299451D01*
X129074663Y-52329249D01*
X129118543Y-52351784D01*
X129124661Y-52354169D01*
X129150107Y-52362796D01*
X129174174Y-52368570D01*
X129199622Y-52371872D01*
X129229206Y-52373088D01*
X129258480Y-52372797D01*
X129284953Y-52371811D01*
X129305339Y-52370029D01*
X129322807Y-52366949D01*
X129340523Y-52362070D01*
X129353598Y-52357720D01*
X129400648Y-52337164D01*
X129440949Y-52310338D01*
X129474702Y-52277039D01*
X129502108Y-52237059D01*
X129523367Y-52190194D01*
X129526822Y-52180208D01*
X129541736Y-52120710D01*
X129547583Y-52060539D01*
X129544367Y-52000474D01*
X129532094Y-51941295D01*
X129525118Y-51919376D01*
X129503980Y-51872443D01*
X129475583Y-51830925D01*
X129440587Y-51795436D01*
X129399653Y-51766592D01*
X129353442Y-51745008D01*
X129329843Y-51737479D01*
X129304153Y-51732574D01*
X129272629Y-51729786D01*
X129238453Y-51729114D01*
X129204806Y-51730557D01*
X129174869Y-51734114D01*
X129158935Y-51737551D01*
X129110710Y-51755329D01*
X129067516Y-51780738D01*
X129029716Y-51813413D01*
X128997668Y-51852992D01*
X128971735Y-51899109D01*
X128954485Y-51944079D01*
X128950171Y-51959030D01*
X128947166Y-51973064D01*
X128945246Y-51988383D01*
X128944189Y-52007193D01*
X128943773Y-52031697D01*
X128943739Y-52050569D01*
X128768335Y-52050569D01*
X128768425Y-52030944D01*
X128770110Y-51996304D01*
X128773347Y-51967079D01*
X128774100Y-51962599D01*
X128789931Y-51897163D01*
X128812905Y-51836021D01*
X128842557Y-51779793D01*
X128878421Y-51729100D01*
X128920034Y-51684564D01*
X128966930Y-51646805D01*
X129018644Y-51616446D01*
X129040679Y-51606469D01*
X129068169Y-51595412D01*
X129092048Y-51586961D01*
X129114323Y-51580774D01*
X129137000Y-51576510D01*
X129162085Y-51573830D01*
X129191585Y-51572391D01*
X129227504Y-51571853D01*
X129244590Y-51571813D01*
X129283790Y-51572084D01*
G37*
G36*
X127538549Y-50119460D02*
G01*
X127542466Y-50131086D01*
X127547891Y-50148578D01*
X127554387Y-50170395D01*
X127561522Y-50194996D01*
X127568858Y-50220839D01*
X127575961Y-50246383D01*
X127582397Y-50270085D01*
X127587728Y-50290406D01*
X127591522Y-50305803D01*
X127593341Y-50314735D01*
X127593347Y-50316330D01*
X127588600Y-50318252D01*
X127576684Y-50322543D01*
X127559214Y-50328635D01*
X127537802Y-50335962D01*
X127529187Y-50338878D01*
X127410676Y-50382916D01*
X127298943Y-50432843D01*
X127193328Y-50489035D01*
X127093172Y-50551866D01*
X126997814Y-50621710D01*
X126927291Y-50680464D01*
X126907841Y-50698227D01*
X126884128Y-50720918D01*
X126857818Y-50746847D01*
X126830573Y-50774326D01*
X126804056Y-50801664D01*
X126779932Y-50827172D01*
X126759863Y-50849161D01*
X126749865Y-50860667D01*
X126733006Y-50881265D01*
X126713539Y-50906029D01*
X126692731Y-50933247D01*
X126671852Y-50961208D01*
X126652170Y-50988201D01*
X126634952Y-51012515D01*
X126621467Y-51032439D01*
X126615349Y-51042151D01*
X126603314Y-51062016D01*
X126589579Y-51084353D01*
X126578935Y-51101425D01*
X126565586Y-51124093D01*
X126549699Y-51153407D01*
X126532217Y-51187432D01*
X126514083Y-51224235D01*
X126496239Y-51261880D01*
X126479628Y-51298432D01*
X126465194Y-51331958D01*
X126458239Y-51349128D01*
X126417846Y-51462393D01*
X126386092Y-51575151D01*
X126362727Y-51688722D01*
X126347505Y-51804425D01*
X126340178Y-51923580D01*
X126339390Y-51981119D01*
X126343512Y-52103583D01*
X126355799Y-52222728D01*
X126376444Y-52339944D01*
X126404713Y-52453376D01*
X126414042Y-52483826D01*
X126425996Y-52519396D01*
X126439733Y-52557855D01*
X126454411Y-52596975D01*
X126469188Y-52634525D01*
X126483223Y-52668275D01*
X126495672Y-52695995D01*
X126498693Y-52702239D01*
X126507486Y-52720230D01*
X126514493Y-52734934D01*
X126518847Y-52744512D01*
X126519854Y-52747197D01*
X126522086Y-52752493D01*
X126528230Y-52764299D01*
X126537461Y-52781167D01*
X126548952Y-52801652D01*
X126561879Y-52824308D01*
X126575416Y-52847687D01*
X126588735Y-52870343D01*
X126601012Y-52890831D01*
X126611421Y-52907703D01*
X126612198Y-52908931D01*
X126658545Y-52977627D01*
X126710193Y-53046347D01*
X126764726Y-53112030D01*
X126818058Y-53169905D01*
X126855406Y-53208145D01*
X126780219Y-53283332D01*
X126705031Y-53358520D01*
X126674430Y-53326117D01*
X126593454Y-53235551D01*
X126518846Y-53142256D01*
X126451814Y-53047772D01*
X126429843Y-53013882D01*
X126417728Y-52994363D01*
X126404042Y-52971745D01*
X126389570Y-52947389D01*
X126375093Y-52922653D01*
X126361395Y-52898896D01*
X126349260Y-52877478D01*
X126339469Y-52859759D01*
X126332807Y-52847097D01*
X126330056Y-52840851D01*
X126330025Y-52840609D01*
X126328167Y-52835793D01*
X126323107Y-52824328D01*
X126315617Y-52807928D01*
X126306469Y-52788307D01*
X126306442Y-52788248D01*
X126288062Y-52746933D01*
X126268557Y-52699120D01*
X126248848Y-52647343D01*
X126229853Y-52594138D01*
X126212493Y-52542036D01*
X126197687Y-52493574D01*
X126191636Y-52471896D01*
X126172996Y-52394117D01*
X126157150Y-52310883D01*
X126144377Y-52224607D01*
X126134957Y-52137706D01*
X126129168Y-52052594D01*
X126127289Y-51971687D01*
X126128267Y-51923244D01*
X126138133Y-51785132D01*
X126156626Y-51650263D01*
X126183718Y-51518724D01*
X126219378Y-51390598D01*
X126263577Y-51265968D01*
X126316286Y-51144920D01*
X126377474Y-51027537D01*
X126447114Y-50913903D01*
X126518523Y-50812871D01*
X126588329Y-50725884D01*
X126664334Y-50641454D01*
X126744745Y-50561396D01*
X126827771Y-50487524D01*
X126885621Y-50441127D01*
X126924998Y-50412127D01*
X126968578Y-50382046D01*
X127014982Y-50351697D01*
X127062832Y-50321890D01*
X127110752Y-50293436D01*
X127157364Y-50267146D01*
X127201289Y-50243832D01*
X127241150Y-50224303D01*
X127275570Y-50209372D01*
X127286114Y-50205369D01*
X127300186Y-50199927D01*
X127310863Y-50195173D01*
X127314269Y-50193236D01*
X127321029Y-50189904D01*
X127335006Y-50184223D01*
X127354681Y-50176728D01*
X127378529Y-50167952D01*
X127405028Y-50158431D01*
X127432655Y-50148697D01*
X127459888Y-50139286D01*
X127485205Y-50130732D01*
X127507083Y-50123568D01*
X127523998Y-50118329D01*
X127534429Y-50115549D01*
X127536576Y-50115242D01*
X127538549Y-50119460D01*
G37*
D14*
%TO.C,J1*%
X141520000Y-48325000D02*
X142790000Y-48325000D01*
X141520000Y-49595000D02*
X141520000Y-48325000D01*
X143832929Y-51755000D02*
X144287071Y-51755000D01*
X143832929Y-52515000D02*
X144287071Y-52515000D01*
X143832929Y-54295000D02*
X144287071Y-54295000D01*
X143832929Y-55055000D02*
X144287071Y-55055000D01*
X143900000Y-49215000D02*
X144287071Y-49215000D01*
X143900000Y-49975000D02*
X144287071Y-49975000D01*
X146372929Y-49215000D02*
X146770000Y-49215000D01*
X146372929Y-49975000D02*
X146770000Y-49975000D01*
X146372929Y-51755000D02*
X146770000Y-51755000D01*
X146372929Y-52515000D02*
X146770000Y-52515000D01*
X146372929Y-54295000D02*
X146770000Y-54295000D01*
X146372929Y-55055000D02*
X146770000Y-55055000D01*
X146770000Y-48265000D02*
X146770000Y-56005000D01*
X146770000Y-50865000D02*
X149430000Y-50865000D01*
X146770000Y-53405000D02*
X149430000Y-53405000D01*
X146770000Y-56005000D02*
X149430000Y-56005000D01*
X149430000Y-48265000D02*
X146770000Y-48265000D01*
X149430000Y-49215000D02*
X155430000Y-49215000D01*
X149430000Y-49275000D02*
X155430000Y-49275000D01*
X149430000Y-49395000D02*
X155430000Y-49395000D01*
X149430000Y-49515000D02*
X155430000Y-49515000D01*
X149430000Y-49635000D02*
X155430000Y-49635000D01*
X149430000Y-49755000D02*
X155430000Y-49755000D01*
X149430000Y-49875000D02*
X155430000Y-49875000D01*
X149430000Y-51755000D02*
X155430000Y-51755000D01*
X149430000Y-54295000D02*
X155430000Y-54295000D01*
X149430000Y-56005000D02*
X149430000Y-48265000D01*
X155430000Y-49215000D02*
X155430000Y-49975000D01*
X155430000Y-49975000D02*
X149430000Y-49975000D01*
X155430000Y-51755000D02*
X155430000Y-52515000D01*
X155430000Y-52515000D02*
X149430000Y-52515000D01*
X155430000Y-54295000D02*
X155430000Y-55055000D01*
X155430000Y-55055000D02*
X149430000Y-55055000D01*
%TO.C,J3*%
X126720000Y-62780000D02*
X126720000Y-64110000D01*
X125390000Y-62780000D02*
X126720000Y-62780000D01*
X124120000Y-62780000D02*
X118980000Y-62780000D01*
X124120000Y-62780000D02*
X124120000Y-65440000D01*
X118980000Y-62780000D02*
X118980000Y-65440000D01*
X124120000Y-65440000D02*
X118980000Y-65440000D01*
%TO.C,U4*%
X125990000Y-56600000D02*
X122540000Y-56600000D01*
X125990000Y-56600000D02*
X127940000Y-56600000D01*
X125990000Y-61720000D02*
X124040000Y-61720000D01*
X125990000Y-61720000D02*
X127940000Y-61720000D01*
%TO.C,R4*%
X116992258Y-51582500D02*
X116517742Y-51582500D01*
X116992258Y-50537500D02*
X116517742Y-50537500D01*
%TO.C,D2*%
X111885000Y-50345000D02*
X111885000Y-51815000D01*
X111885000Y-51815000D02*
X114170000Y-51815000D01*
X114170000Y-50345000D02*
X111885000Y-50345000D01*
%TO.C,C1*%
X127950580Y-56020000D02*
X127669420Y-56020000D01*
X127950580Y-55000000D02*
X127669420Y-55000000D01*
%TO.C,D1*%
X111885000Y-47485000D02*
X111885000Y-48955000D01*
X111885000Y-48955000D02*
X114170000Y-48955000D01*
X114170000Y-47485000D02*
X111885000Y-47485000D01*
%TO.C,U1*%
X135140000Y-54270000D02*
X138590000Y-54270000D01*
X135140000Y-54270000D02*
X133190000Y-54270000D01*
X135140000Y-49150000D02*
X137090000Y-49150000D01*
X135140000Y-49150000D02*
X133190000Y-49150000D01*
%TO.C,U2*%
X135210000Y-57350000D02*
X131760000Y-57350000D01*
X135210000Y-57350000D02*
X137160000Y-57350000D01*
X135210000Y-62470000D02*
X133260000Y-62470000D01*
X135210000Y-62470000D02*
X137160000Y-62470000D01*
%TO.C,R2*%
X132772742Y-63217500D02*
X133247258Y-63217500D01*
X132772742Y-64262500D02*
X133247258Y-64262500D01*
%TO.C,C3*%
X119990000Y-59039420D02*
X119990000Y-59320580D01*
X118970000Y-59039420D02*
X118970000Y-59320580D01*
%TO.C,D3*%
X111885000Y-53165000D02*
X111885000Y-54635000D01*
X111885000Y-54635000D02*
X114170000Y-54635000D01*
X114170000Y-53165000D02*
X111885000Y-53165000D01*
%TO.C,R3*%
X116992258Y-48742500D02*
X116517742Y-48742500D01*
X116992258Y-47697500D02*
X116517742Y-47697500D01*
%TO.C,C4*%
X121660000Y-59029420D02*
X121660000Y-59310580D01*
X120640000Y-59029420D02*
X120640000Y-59310580D01*
%TO.C,J2*%
X116790000Y-56635000D02*
X116790000Y-57295000D01*
X115060000Y-56635000D02*
X116790000Y-56635000D01*
X112490000Y-56635000D02*
X112700000Y-56635000D01*
X117490000Y-58685000D02*
X117100000Y-58685000D01*
X117490000Y-58685000D02*
X117490000Y-59135000D01*
X116790000Y-64255000D02*
X116790000Y-63605000D01*
X115060000Y-64255000D02*
X116790000Y-64255000D01*
X112490000Y-64255000D02*
X112700000Y-64255000D01*
%TO.C,R5*%
X116992258Y-54422500D02*
X116517742Y-54422500D01*
X116992258Y-53377500D02*
X116517742Y-53377500D01*
%TO.C,R1*%
X137147742Y-55027500D02*
X137622258Y-55027500D01*
X137147742Y-56072500D02*
X137622258Y-56072500D01*
%TO.C,C2*%
X129980000Y-63589420D02*
X129980000Y-63870580D01*
X128960000Y-63589420D02*
X128960000Y-63870580D01*
%TD*%
M02*
