%TF.GenerationSoftware,KiCad,Pcbnew,7.0.2*%
%TF.CreationDate,2023-06-02T20:19:36-04:00*%
%TF.ProjectId,Zaelio_USB_YHP,5a61656c-696f-45f5-9553-425f5948502e,rev?*%
%TF.SameCoordinates,Original*%
%TF.FileFunction,Legend,Bot*%
%TF.FilePolarity,Positive*%
%FSLAX46Y46*%
G04 Gerber Fmt 4.6, Leading zero omitted, Abs format (unit mm)*
G04 Created by KiCad (PCBNEW 7.0.2) date 2023-06-02 20:19:36*
%MOMM*%
%LPD*%
G01*
G04 APERTURE LIST*
%ADD10C,0.150000*%
G04 APERTURE END LIST*
D10*
X148638095Y-54225238D02*
X148733333Y-54177619D01*
X148733333Y-54177619D02*
X148876190Y-54177619D01*
X148876190Y-54177619D02*
X149019047Y-54225238D01*
X149019047Y-54225238D02*
X149114285Y-54320476D01*
X149114285Y-54320476D02*
X149161904Y-54415714D01*
X149161904Y-54415714D02*
X149209523Y-54606190D01*
X149209523Y-54606190D02*
X149209523Y-54749047D01*
X149209523Y-54749047D02*
X149161904Y-54939523D01*
X149161904Y-54939523D02*
X149114285Y-55034761D01*
X149114285Y-55034761D02*
X149019047Y-55130000D01*
X149019047Y-55130000D02*
X148876190Y-55177619D01*
X148876190Y-55177619D02*
X148780952Y-55177619D01*
X148780952Y-55177619D02*
X148638095Y-55130000D01*
X148638095Y-55130000D02*
X148590476Y-55082380D01*
X148590476Y-55082380D02*
X148590476Y-54749047D01*
X148590476Y-54749047D02*
X148780952Y-54749047D01*
X148161904Y-55177619D02*
X148161904Y-54177619D01*
X148161904Y-54177619D02*
X147590476Y-55177619D01*
X147590476Y-55177619D02*
X147590476Y-54177619D01*
X147114285Y-55177619D02*
X147114285Y-54177619D01*
X147114285Y-54177619D02*
X146876190Y-54177619D01*
X146876190Y-54177619D02*
X146733333Y-54225238D01*
X146733333Y-54225238D02*
X146638095Y-54320476D01*
X146638095Y-54320476D02*
X146590476Y-54415714D01*
X146590476Y-54415714D02*
X146542857Y-54606190D01*
X146542857Y-54606190D02*
X146542857Y-54749047D01*
X146542857Y-54749047D02*
X146590476Y-54939523D01*
X146590476Y-54939523D02*
X146638095Y-55034761D01*
X146638095Y-55034761D02*
X146733333Y-55130000D01*
X146733333Y-55130000D02*
X146876190Y-55177619D01*
X146876190Y-55177619D02*
X147114285Y-55177619D01*
X149261904Y-50077619D02*
X149261904Y-49077619D01*
X149261904Y-49077619D02*
X148690476Y-50077619D01*
X148690476Y-50077619D02*
X148690476Y-49077619D01*
X147500000Y-49030000D02*
X148357142Y-50315714D01*
X146595238Y-49982380D02*
X146642857Y-50030000D01*
X146642857Y-50030000D02*
X146785714Y-50077619D01*
X146785714Y-50077619D02*
X146880952Y-50077619D01*
X146880952Y-50077619D02*
X147023809Y-50030000D01*
X147023809Y-50030000D02*
X147119047Y-49934761D01*
X147119047Y-49934761D02*
X147166666Y-49839523D01*
X147166666Y-49839523D02*
X147214285Y-49649047D01*
X147214285Y-49649047D02*
X147214285Y-49506190D01*
X147214285Y-49506190D02*
X147166666Y-49315714D01*
X147166666Y-49315714D02*
X147119047Y-49220476D01*
X147119047Y-49220476D02*
X147023809Y-49125238D01*
X147023809Y-49125238D02*
X146880952Y-49077619D01*
X146880952Y-49077619D02*
X146785714Y-49077619D01*
X146785714Y-49077619D02*
X146642857Y-49125238D01*
X146642857Y-49125238D02*
X146595238Y-49172857D01*
X125922380Y-62904761D02*
X125922380Y-62333333D01*
X124922380Y-62619047D02*
X125922380Y-62619047D01*
X125922380Y-62095237D02*
X124922380Y-61428571D01*
X125922380Y-61428571D02*
X124922380Y-62095237D01*
X149261904Y-52577619D02*
X149261904Y-51577619D01*
X149261904Y-51577619D02*
X148690476Y-52577619D01*
X148690476Y-52577619D02*
X148690476Y-51577619D01*
X147500000Y-51530000D02*
X148357142Y-52815714D01*
X146595238Y-52482380D02*
X146642857Y-52530000D01*
X146642857Y-52530000D02*
X146785714Y-52577619D01*
X146785714Y-52577619D02*
X146880952Y-52577619D01*
X146880952Y-52577619D02*
X147023809Y-52530000D01*
X147023809Y-52530000D02*
X147119047Y-52434761D01*
X147119047Y-52434761D02*
X147166666Y-52339523D01*
X147166666Y-52339523D02*
X147214285Y-52149047D01*
X147214285Y-52149047D02*
X147214285Y-52006190D01*
X147214285Y-52006190D02*
X147166666Y-51815714D01*
X147166666Y-51815714D02*
X147119047Y-51720476D01*
X147119047Y-51720476D02*
X147023809Y-51625238D01*
X147023809Y-51625238D02*
X146880952Y-51577619D01*
X146880952Y-51577619D02*
X146785714Y-51577619D01*
X146785714Y-51577619D02*
X146642857Y-51625238D01*
X146642857Y-51625238D02*
X146595238Y-51672857D01*
X120774761Y-62338095D02*
X120822380Y-62433333D01*
X120822380Y-62433333D02*
X120822380Y-62576190D01*
X120822380Y-62576190D02*
X120774761Y-62719047D01*
X120774761Y-62719047D02*
X120679523Y-62814285D01*
X120679523Y-62814285D02*
X120584285Y-62861904D01*
X120584285Y-62861904D02*
X120393809Y-62909523D01*
X120393809Y-62909523D02*
X120250952Y-62909523D01*
X120250952Y-62909523D02*
X120060476Y-62861904D01*
X120060476Y-62861904D02*
X119965238Y-62814285D01*
X119965238Y-62814285D02*
X119870000Y-62719047D01*
X119870000Y-62719047D02*
X119822380Y-62576190D01*
X119822380Y-62576190D02*
X119822380Y-62480952D01*
X119822380Y-62480952D02*
X119870000Y-62338095D01*
X119870000Y-62338095D02*
X119917619Y-62290476D01*
X119917619Y-62290476D02*
X120250952Y-62290476D01*
X120250952Y-62290476D02*
X120250952Y-62480952D01*
X119822380Y-61861904D02*
X120822380Y-61861904D01*
X120822380Y-61861904D02*
X119822380Y-61290476D01*
X119822380Y-61290476D02*
X120822380Y-61290476D01*
X119822380Y-60814285D02*
X120822380Y-60814285D01*
X120822380Y-60814285D02*
X120822380Y-60576190D01*
X120822380Y-60576190D02*
X120774761Y-60433333D01*
X120774761Y-60433333D02*
X120679523Y-60338095D01*
X120679523Y-60338095D02*
X120584285Y-60290476D01*
X120584285Y-60290476D02*
X120393809Y-60242857D01*
X120393809Y-60242857D02*
X120250952Y-60242857D01*
X120250952Y-60242857D02*
X120060476Y-60290476D01*
X120060476Y-60290476D02*
X119965238Y-60338095D01*
X119965238Y-60338095D02*
X119870000Y-60433333D01*
X119870000Y-60433333D02*
X119822380Y-60576190D01*
X119822380Y-60576190D02*
X119822380Y-60814285D01*
X141561904Y-54896666D02*
X140800000Y-54896666D01*
X141180952Y-55277619D02*
X141180952Y-54515714D01*
X139847619Y-54277619D02*
X140323809Y-54277619D01*
X140323809Y-54277619D02*
X140371428Y-54753809D01*
X140371428Y-54753809D02*
X140323809Y-54706190D01*
X140323809Y-54706190D02*
X140228571Y-54658571D01*
X140228571Y-54658571D02*
X139990476Y-54658571D01*
X139990476Y-54658571D02*
X139895238Y-54706190D01*
X139895238Y-54706190D02*
X139847619Y-54753809D01*
X139847619Y-54753809D02*
X139800000Y-54849047D01*
X139800000Y-54849047D02*
X139800000Y-55087142D01*
X139800000Y-55087142D02*
X139847619Y-55182380D01*
X139847619Y-55182380D02*
X139895238Y-55230000D01*
X139895238Y-55230000D02*
X139990476Y-55277619D01*
X139990476Y-55277619D02*
X140228571Y-55277619D01*
X140228571Y-55277619D02*
X140323809Y-55230000D01*
X140323809Y-55230000D02*
X140371428Y-55182380D01*
X139514285Y-54277619D02*
X139180952Y-55277619D01*
X139180952Y-55277619D02*
X138847619Y-54277619D01*
X141704761Y-49077619D02*
X141133333Y-49077619D01*
X141419047Y-50077619D02*
X141419047Y-49077619D01*
X140895237Y-49077619D02*
X140228571Y-50077619D01*
X140228571Y-49077619D02*
X140895237Y-50077619D01*
X140890476Y-52677619D02*
X141223809Y-52201428D01*
X141461904Y-52677619D02*
X141461904Y-51677619D01*
X141461904Y-51677619D02*
X141080952Y-51677619D01*
X141080952Y-51677619D02*
X140985714Y-51725238D01*
X140985714Y-51725238D02*
X140938095Y-51772857D01*
X140938095Y-51772857D02*
X140890476Y-51868095D01*
X140890476Y-51868095D02*
X140890476Y-52010952D01*
X140890476Y-52010952D02*
X140938095Y-52106190D01*
X140938095Y-52106190D02*
X140985714Y-52153809D01*
X140985714Y-52153809D02*
X141080952Y-52201428D01*
X141080952Y-52201428D02*
X141461904Y-52201428D01*
X140557142Y-51677619D02*
X139890476Y-52677619D01*
X139890476Y-51677619D02*
X140557142Y-52677619D01*
X122422380Y-62190476D02*
X122898571Y-62523809D01*
X122422380Y-62761904D02*
X123422380Y-62761904D01*
X123422380Y-62761904D02*
X123422380Y-62380952D01*
X123422380Y-62380952D02*
X123374761Y-62285714D01*
X123374761Y-62285714D02*
X123327142Y-62238095D01*
X123327142Y-62238095D02*
X123231904Y-62190476D01*
X123231904Y-62190476D02*
X123089047Y-62190476D01*
X123089047Y-62190476D02*
X122993809Y-62238095D01*
X122993809Y-62238095D02*
X122946190Y-62285714D01*
X122946190Y-62285714D02*
X122898571Y-62380952D01*
X122898571Y-62380952D02*
X122898571Y-62761904D01*
X123422380Y-61857142D02*
X122422380Y-61190476D01*
X123422380Y-61190476D02*
X122422380Y-61857142D01*
M02*
