%TF.GenerationSoftware,KiCad,Pcbnew,7.0.2*%
%TF.CreationDate,2023-06-02T20:19:36-04:00*%
%TF.ProjectId,Zaelio_USB_YHP,5a61656c-696f-45f5-9553-425f5948502e,rev?*%
%TF.SameCoordinates,Original*%
%TF.FileFunction,Paste,Top*%
%TF.FilePolarity,Positive*%
%FSLAX46Y46*%
G04 Gerber Fmt 4.6, Leading zero omitted, Abs format (unit mm)*
G04 Created by KiCad (PCBNEW 7.0.2) date 2023-06-02 20:19:36*
%MOMM*%
%LPD*%
G01*
G04 APERTURE LIST*
G04 Aperture macros list*
%AMRoundRect*
0 Rectangle with rounded corners*
0 $1 Rounding radius*
0 $2 $3 $4 $5 $6 $7 $8 $9 X,Y pos of 4 corners*
0 Add a 4 corners polygon primitive as box body*
4,1,4,$2,$3,$4,$5,$6,$7,$8,$9,$2,$3,0*
0 Add four circle primitives for the rounded corners*
1,1,$1+$1,$2,$3*
1,1,$1+$1,$4,$5*
1,1,$1+$1,$6,$7*
1,1,$1+$1,$8,$9*
0 Add four rect primitives between the rounded corners*
20,1,$1+$1,$2,$3,$4,$5,0*
20,1,$1+$1,$4,$5,$6,$7,0*
20,1,$1+$1,$6,$7,$8,$9,0*
20,1,$1+$1,$8,$9,$2,$3,0*%
G04 Aperture macros list end*
%ADD10RoundRect,0.150000X-0.725000X-0.150000X0.725000X-0.150000X0.725000X0.150000X-0.725000X0.150000X0*%
%ADD11RoundRect,0.200000X0.200000X0.275000X-0.200000X0.275000X-0.200000X-0.275000X0.200000X-0.275000X0*%
%ADD12RoundRect,0.218750X-0.218750X-0.256250X0.218750X-0.256250X0.218750X0.256250X-0.218750X0.256250X0*%
%ADD13RoundRect,0.225000X0.225000X0.250000X-0.225000X0.250000X-0.225000X-0.250000X0.225000X-0.250000X0*%
%ADD14RoundRect,0.150000X0.825000X0.150000X-0.825000X0.150000X-0.825000X-0.150000X0.825000X-0.150000X0*%
%ADD15RoundRect,0.150000X-0.825000X-0.150000X0.825000X-0.150000X0.825000X0.150000X-0.825000X0.150000X0*%
%ADD16RoundRect,0.200000X-0.200000X-0.275000X0.200000X-0.275000X0.200000X0.275000X-0.200000X0.275000X0*%
%ADD17RoundRect,0.225000X-0.250000X0.225000X-0.250000X-0.225000X0.250000X-0.225000X0.250000X0.225000X0*%
%ADD18R,1.400000X0.400000*%
%ADD19R,1.450000X1.150000*%
%ADD20R,1.900000X1.750000*%
G04 APERTURE END LIST*
D10*
%TO.C,U4*%
X123415000Y-57255000D03*
X123415000Y-58525000D03*
X123415000Y-59795000D03*
X123415000Y-61065000D03*
X128565000Y-61065000D03*
X128565000Y-59795000D03*
X128565000Y-58525000D03*
X128565000Y-57255000D03*
%TD*%
D11*
%TO.C,R4*%
X117580000Y-51060000D03*
X115930000Y-51060000D03*
%TD*%
D12*
%TO.C,D2*%
X112582500Y-51080000D03*
X114157500Y-51080000D03*
%TD*%
D13*
%TO.C,C1*%
X128585000Y-55510000D03*
X127035000Y-55510000D03*
%TD*%
D12*
%TO.C,D1*%
X112582500Y-48220000D03*
X114157500Y-48220000D03*
%TD*%
D14*
%TO.C,U1*%
X137615000Y-53615000D03*
X137615000Y-52345000D03*
X137615000Y-51075000D03*
X137615000Y-49805000D03*
X132665000Y-49805000D03*
X132665000Y-51075000D03*
X132665000Y-52345000D03*
X132665000Y-53615000D03*
%TD*%
D15*
%TO.C,U2*%
X132735000Y-58005000D03*
X132735000Y-59275000D03*
X132735000Y-60545000D03*
X132735000Y-61815000D03*
X137685000Y-61815000D03*
X137685000Y-60545000D03*
X137685000Y-59275000D03*
X137685000Y-58005000D03*
%TD*%
D16*
%TO.C,R2*%
X132185000Y-63740000D03*
X133835000Y-63740000D03*
%TD*%
D17*
%TO.C,C3*%
X119480000Y-58405000D03*
X119480000Y-59955000D03*
%TD*%
D12*
%TO.C,D3*%
X112582500Y-53900000D03*
X114157500Y-53900000D03*
%TD*%
D11*
%TO.C,R3*%
X117580000Y-48220000D03*
X115930000Y-48220000D03*
%TD*%
D17*
%TO.C,C4*%
X121150000Y-58395000D03*
X121150000Y-59945000D03*
%TD*%
D18*
%TO.C,J2*%
X116530000Y-59145000D03*
X116530000Y-59795000D03*
X116530000Y-60445000D03*
X116530000Y-61095000D03*
X116530000Y-61745000D03*
D19*
X116110000Y-58125000D03*
D20*
X113880000Y-59320000D03*
X113880000Y-61570000D03*
D19*
X116110000Y-62765000D03*
%TD*%
D11*
%TO.C,R5*%
X117580000Y-53900000D03*
X115930000Y-53900000D03*
%TD*%
D16*
%TO.C,R1*%
X136560000Y-55550000D03*
X138210000Y-55550000D03*
%TD*%
D17*
%TO.C,C2*%
X129470000Y-62955000D03*
X129470000Y-64505000D03*
%TD*%
M02*
